<?xml version="1.0" standalone="no"?>
<!DOCTYPE svg PUBLIC "-//W3C//DTD SVG 20010904//EN"
 "http://www.w3.org/TR/2001/REC-SVG-20010904/DTD/svg10.dtd">
<svg version="1.0" xmlns="http://www.w3.org/2000/svg"
 width="407.000000pt" height="612.000000pt" viewBox="0 0 407.000000 612.000000"
 preserveAspectRatio="xMidYMid meet">

<g transform="translate(0.000000,612.000000) scale(0.100000,-0.100000)"
fill="#000000" stroke="none">
<path d="M699 6103 c-1 -10 -3 -36 -5 -58 -3 -35 0 -43 24 -58 26 -16 26 -16
4 -17 -13 0 -21 -4 -17 -10 3 -5 12 -7 19 -4 16 6 26 -24 26 -79 0 -22 7 -64
16 -94 l16 -56 16 33 c9 19 35 53 58 77 24 24 45 57 49 73 4 16 11 32 16 35
14 10 10 35 -6 35 -8 0 -18 -16 -24 -36 -5 -19 -28 -55 -50 -80 -23 -24 -41
-48 -41 -54 0 -6 -4 -8 -10 -5 -5 3 -10 39 -10 80 0 50 -4 78 -14 87 -8 8 -11
21 -7 33 4 11 9 41 10 68 l3 47 -36 0 c-27 0 -36 -4 -37 -17z"/>
<path d="M840 6050 c0 -56 3 -68 14 -64 11 4 13 12 5 30 -5 16 -5 23 0 19 6
-3 14 3 20 12 6 10 11 14 11 8 1 -20 20 21 20 43 0 19 -5 22 -35 22 l-35 0 0
-70z"/>
<path d="M999 6078 c-2 -24 -3 -55 -1 -70 3 -26 6 -28 53 -28 45 0 49 -2 49
-24 0 -14 -16 -46 -36 -72 -20 -26 -39 -58 -43 -71 -17 -65 -44 10 -39 110 2
47 0 57 -12 55 -23 -5 -29 -128 -10 -200 8 -32 18 -58 22 -58 12 0 67 63 68
77 0 7 13 27 28 45 16 18 34 54 42 80 18 68 31 49 24 -33 -6 -63 -4 -75 21
-125 l28 -55 22 23 c12 13 27 33 33 45 6 11 27 39 47 62 20 25 35 54 35 69 0
32 16 60 27 49 4 -5 10 -49 13 -100 8 -115 25 -157 65 -157 9 0 112 166 112
180 0 25 31 90 43 90 6 0 9 -4 5 -9 -3 -5 0 -13 5 -16 6 -4 10 -17 9 -28 -2
-12 5 -44 16 -70 15 -40 16 -56 8 -93 -6 -24 -9 -44 -7 -44 2 0 35 32 74 71
55 56 72 80 76 110 4 21 17 48 30 60 l24 22 0 -44 c0 -24 5 -51 10 -59 7 -10
10 5 10 53 l0 68 -31 -3 c-32 -3 -41 -15 -74 -95 -10 -23 -24 -44 -31 -47 -8
-3 -19 -17 -24 -31 -12 -32 -30 -24 -30 13 0 15 -7 37 -15 49 -8 11 -17 39
-21 61 -6 40 -6 41 27 44 32 3 34 5 31 38 -1 19 2 50 7 68 l10 32 -160 0
c-135 0 -159 -2 -159 -15 0 -8 -5 -15 -11 -15 -8 0 -7 -5 1 -15 7 -9 10 -18 7
-22 -4 -3 -9 2 -13 11 -3 9 -11 13 -16 10 -6 -4 -5 2 1 14 16 30 15 32 -29 32
-22 0 -40 -3 -40 -8 0 -4 9 -32 20 -62 11 -30 16 -56 11 -58 -5 -2 -7 -12 -4
-22 8 -32 -5 -65 -42 -110 -19 -23 -38 -53 -41 -66 -3 -13 -10 -24 -14 -24
-16 0 -34 75 -34 142 l-1 68 -32 0 c-41 0 -46 10 -45 81 l1 59 -49 0 -48 0 -3
-42z m531 -136 c0 -29 -12 -57 -52 -117 -55 -87 -66 -86 -67 0 -1 22 -8 60
-17 84 -22 65 -16 71 66 71 l70 0 0 -38z"/>
<path d="M1880 6089 c0 -17 4 -28 10 -24 6 3 10 17 10 31 0 13 -4 24 -10 24
-5 0 -10 -14 -10 -31z"/>
<path d="M1953 6048 l-10 -73 -8 43 c-4 23 -11 45 -16 48 -5 3 -5 -10 -1 -28
9 -42 8 -105 -2 -143 l-8 -30 15 27 c9 15 18 35 20 45 3 10 3 -107 0 -259 -4
-162 -2 -278 3 -278 36 1 37 12 40 337 2 175 6 333 9 351 5 27 3 32 -13 32
-16 0 -21 -11 -29 -72z"/>
<path d="M2011 6103 c-1 -23 25 -133 34 -141 10 -10 5 23 -14 93 -11 39 -20
60 -20 48z"/>
<path d="M2075 5803 c2 -175 6 -327 9 -338 2 -11 5 -29 6 -40 1 -11 8 3 15 30
l12 50 7 -32 c4 -18 12 -33 17 -33 5 0 4 11 -1 26 -16 40 -12 99 10 156 11 29
21 62 22 73 1 11 5 -50 8 -135 5 -149 15 -189 32 -123 4 15 8 175 10 356 3
306 2 327 -14 327 -13 0 -18 -8 -18 -31 0 -17 4 -28 10 -24 6 3 10 2 10 -4 0
-5 -4 -13 -10 -16 -6 -4 -10 -56 -10 -123 0 -64 -3 -135 -7 -156 l-6 -39 -15
49 c-16 52 -20 168 -8 219 5 22 2 19 -13 -14 -26 -54 -26 -96 -1 -161 24 -62
26 -125 3 -176 -9 -22 -19 -55 -23 -74 -9 -40 -13 155 -10 398 2 148 1 152
-19 152 -20 0 -20 -2 -16 -317z"/>
<path d="M2161 6080 c0 -40 2 -42 11 -22 8 16 8 28 0 45 -9 19 -11 17 -11 -23z"/>
<path d="M2292 6090 c0 -19 2 -27 5 -17 2 9 2 25 0 35 -3 9 -5 1 -5 -18z"/>
<path d="M2330 6088 c0 -18 -5 -98 -10 -178 -31 -447 -31 -545 -4 -517 4 3 10
95 15 204 4 109 13 250 18 313 15 165 14 210 -4 210 -10 0 -15 -10 -15 -32z"/>
<path d="M2404 6040 c1 -47 -2 -137 -6 -200 -3 -63 -4 -99 -2 -80 20 153 34
291 33 320 -1 32 -2 33 -9 10 -7 -25 -7 -25 -12 5 -2 17 -4 -8 -4 -55z"/>
<path d="M2640 6108 c0 -7 -3 -30 -6 -50 -8 -46 9 -51 24 -8 10 26 14 29 41
24 19 -4 31 -2 31 4 0 6 3 17 6 26 5 13 -2 16 -45 16 -34 0 -51 -4 -51 -12z"/>
<path d="M2864 6057 c10 -94 8 -97 -82 -97 -87 0 -94 -8 -10 -11 66 -3 74 -6
86 -38 8 -22 -1 -127 -11 -138 -7 -7 -94 86 -128 138 -29 44 -33 46 -78 47
l-47 2 4 -58 c4 -64 -8 -134 -24 -139 -6 -2 -17 10 -24 27 -7 17 -26 47 -42
67 -15 20 -31 48 -35 62 -3 14 -12 35 -19 46 -13 17 -14 14 -14 -36 0 -50 3
-58 36 -90 38 -36 87 -105 90 -127 4 -23 13 -26 20 -6 4 10 18 43 31 73 21 45
24 63 18 107 -6 49 -5 54 13 54 15 0 25 -13 38 -45 11 -30 28 -52 50 -66 35
-21 84 -78 109 -125 l14 -27 7 29 c4 16 15 49 26 73 17 38 18 50 8 89 -6 24
-8 47 -5 50 10 11 64 -51 71 -82 6 -26 110 -145 118 -135 1 2 9 20 16 39 7 19
20 43 29 53 8 10 18 38 21 63 6 57 22 61 35 9 19 -72 38 -116 46 -103 8 13 48
-63 49 -91 0 -11 4 -9 15 5 13 16 14 17 9 1 -4 -10 -3 -17 2 -16 5 1 11 1 14
0 3 -1 20 -4 37 -5 42 -5 33 11 -18 32 l-40 17 36 51 c37 52 58 124 36 124 -6
0 -11 -8 -11 -19 0 -10 -13 -35 -29 -55 -16 -21 -32 -42 -34 -49 -7 -18 -20
-1 -62 76 -37 67 -37 67 -13 67 38 0 46 12 57 85 6 39 13 85 16 103 l6 32
-104 0 -105 0 -12 -81 c-6 -45 -16 -92 -20 -105 -6 -15 -6 -24 0 -24 6 0 13
14 17 30 6 30 27 37 28 9 1 -8 5 -26 9 -40 5 -19 2 -38 -13 -67 -12 -23 -21
-53 -21 -67 0 -36 -17 -31 -39 13 -11 20 -40 60 -65 87 l-46 50 38 6 c20 3 32
7 25 8 -7 0 -11 7 -8 14 2 6 6 47 10 90 l6 77 -72 0 -71 0 6 -63z"/>
<path d="M1877 5943 c-2 -32 -1 -62 4 -67 5 -6 9 18 9 57 0 37 -2 67 -4 67 -2
0 -6 -26 -9 -57z"/>
<path d="M667 5953 c-4 -3 -7 -13 -7 -21 0 -12 3 -12 15 -2 8 7 15 16 15 21 0
11 -14 12 -23 2z"/>
<path d="M687 5878 c-21 -69 -21 -74 -2 -58 16 13 29 68 23 97 -3 11 -11 -4
-21 -39z"/>
<path d="M2028 5877 c-29 -89 -29 -114 -6 -162 22 -44 22 -45 4 -101 -23 -75
-23 -117 3 -156 l21 -33 0 27 c0 15 -4 30 -10 33 -14 9 -12 72 4 125 11 38 11
53 -1 95 -25 91 -26 121 -8 169 10 26 16 48 13 51 -2 2 -11 -19 -20 -48z"/>
<path d="M2371 5864 c0 -11 3 -14 6 -6 3 7 2 16 -1 19 -3 4 -6 -2 -5 -13z"/>
<path d="M3400 5873 c0 -4 5 -15 10 -23 8 -13 10 -13 10 2 0 9 -4 20 -10 23
-5 3 -10 3 -10 -2z"/>
<path d="M1869 5675 c-2 -104 -2 -203 1 -220 7 -42 16 277 10 350 -4 37 -8
-11 -11 -130z"/>
<path d="M1901 5844 c0 -11 3 -14 6 -6 3 7 2 16 -1 19 -3 4 -6 -2 -5 -13z"/>
<path d="M2276 5770 c4 -34 -1 -65 -21 -123 -20 -58 -26 -91 -22 -124 8 -74
22 -68 22 10 0 40 4 81 9 92 21 48 30 134 17 165 -9 21 -10 18 -5 -20z"/>
<path d="M3532 5787 c-1 -15 -9 -44 -17 -64 -18 -43 -13 -54 10 -20 11 17 15
40 12 69 -2 24 -4 31 -5 15z"/>
<path d="M1920 5721 c0 -16 -5 -42 -10 -58 -9 -26 -9 -27 5 -9 14 18 22 96 10
96 -3 0 -5 -13 -5 -29z"/>
<path d="M3441 5734 c0 -11 3 -14 6 -6 3 7 2 16 -1 19 -3 4 -6 -2 -5 -13z"/>
<path d="M1230 5698 c-15 -19 -29 -20 -265 -22 l-250 -2 -65 -30 c-36 -17 -71
-38 -79 -47 -29 -36 -7 -117 115 -411 30 -71 54 -136 54 -145 0 -10 -11 -32
-25 -51 -29 -39 -26 -49 7 -26 25 18 42 21 33 6 -4 -6 6 -10 22 -10 l28 -1
-25 -14 c-25 -14 -25 -14 -2 -15 24 0 30 -15 10 -23 -7 -3 -4 -6 7 -6 33 -1
57 34 45 65 -13 33 -13 57 0 49 5 -3 10 -2 10 4 0 5 -6 12 -12 14 -8 3 -6 6 5
6 22 1 22 27 0 35 -10 4 -25 -2 -39 -15 -21 -19 -22 -20 -18 -2 7 24 64 63 92
63 13 0 25 8 28 18 11 38 59 118 78 132 29 20 46 21 46 2 1 -15 3 -14 15 2 13
17 15 17 21 3 4 -13 10 -14 24 -7 30 16 102 11 140 -11 l35 -20 -97 4 c-53 1
-94 -1 -92 -5 3 -4 33 -8 67 -8 34 -1 76 -7 92 -15 28 -13 25 -13 -57 -14 -95
-1 -121 -14 -36 -19 29 -1 55 -7 58 -13 4 -5 11 -9 16 -8 22 4 44 -2 44 -12 0
-8 -27 -10 -92 -6 -89 5 -97 -5 -15 -18 79 -13 97 -18 97 -27 0 -5 -19 -9 -42
-8 -95 5 -132 -4 -54 -14 54 -7 57 -16 5 -18 l-44 -1 45 -6 c26 -4 51 -2 59 4
11 7 13 7 7 -2 -7 -12 4 -17 31 -14 6 1 15 -4 19 -10 4 -8 -7 -10 -40 -8 -32
3 -46 0 -46 -8 0 -7 5 -13 11 -13 5 0 7 -5 3 -12 -5 -7 -2 -9 8 -6 8 4 21 2
29 -3 10 -6 3 -9 -22 -9 -66 0 -56 -39 9 -41 24 0 25 -1 7 -8 -11 -4 -35 -4
-53 1 -43 12 -53 4 -13 -10 35 -12 42 -27 10 -19 -12 3 -18 2 -13 -3 17 -15
74 -23 74 -9 0 9 4 8 13 -3 6 -9 24 -18 40 -22 15 -4 27 -11 27 -16 0 -14 -11
-13 -53 5 -20 8 -56 17 -82 19 -25 3 -51 8 -58 12 -9 5 -9 4 0 -6 24 -26 72
-49 171 -81 39 -13 72 -27 72 -31 0 -7 -17 -4 -55 12 -11 5 -50 16 -87 26 -36
10 -65 22 -62 25 2 4 0 11 -6 14 -6 4 -9 1 -8 -7 2 -7 -3 -12 -10 -10 -8 1
-11 -2 -7 -8 3 -6 10 -8 15 -5 5 3 15 -4 23 -16 11 -15 16 -17 20 -7 4 10 7
10 16 -2 5 -8 7 -18 5 -22 -3 -4 0 -8 7 -8 7 0 10 -3 7 -6 -9 -8 -88 18 -82
27 3 5 -2 6 -11 3 -12 -5 -13 -10 -4 -20 6 -8 15 -12 19 -9 4 3 13 -2 20 -10
10 -12 9 -15 -4 -15 -11 0 -14 -5 -10 -12 5 -8 2 -9 -9 -5 -10 3 -17 2 -17 -3
0 -6 5 -10 11 -10 5 0 15 -13 20 -29 7 -20 15 -28 25 -24 8 3 14 1 14 -5 0 -6
23 -18 50 -27 28 -9 50 -21 50 -25 0 -9 -56 6 -75 20 -5 4 -26 11 -45 15 -46
10 -66 25 -48 36 10 7 9 9 -4 9 -27 0 -21 -21 15 -51 20 -18 26 -28 17 -29
-13 0 -13 -1 0 -10 11 -7 11 -10 2 -10 -9 0 -10 -5 -2 -19 8 -17 6 -20 -13
-23 -17 -2 -21 -9 -19 -26 2 -13 -3 -31 -11 -40 -23 -26 -11 -71 22 -79 14 -3
35 -12 47 -20 11 -7 24 -10 29 -6 4 5 5 3 1 -4 -5 -9 -18 -7 -52 7 -54 23 -57
24 -48 8 5 -9 4 -10 -4 -3 -5 6 -12 19 -15 30 -4 18 -5 18 -15 -5 -13 -31 -16
-3 -3 32 4 13 5 32 0 43 -7 18 -8 17 -8 -7 -1 -14 -6 -28 -12 -30 -6 -2 -19
-28 -29 -58 -22 -64 -27 -45 -6 23 8 26 11 47 8 47 -3 0 -1 5 6 12 7 7 12 17
12 22 0 6 -8 -1 -17 -14 -10 -14 -17 -29 -15 -33 1 -5 -2 -6 -8 -2 -9 5 -15
-22 -11 -47 0 -5 -4 -8 -10 -8 -7 0 -9 10 -4 28 5 15 8 37 9 50 1 13 10 33 22
45 21 22 38 67 26 67 -13 -1 -54 -74 -56 -99 -2 -14 -9 -27 -17 -29 -9 -2 -10
0 -4 5 6 4 10 19 11 33 0 14 8 39 17 57 25 47 47 117 46 144 -1 13 2 32 6 42
15 34 -11 16 -34 -26 -23 -40 -23 -41 -2 -23 19 17 21 18 21 2 0 -9 -11 -37
-25 -62 -14 -25 -25 -51 -25 -59 0 -8 -9 -20 -20 -27 -11 -7 -20 -22 -20 -32
0 -14 -3 -17 -10 -10 -12 12 -2 74 12 74 6 0 8 -7 4 -15 -3 -8 -1 -15 4 -15 6
0 10 4 10 9 0 5 3 17 6 25 5 12 2 15 -9 10 -11 -4 -15 0 -13 13 2 10 1 12 -1
6 -5 -15 -23 -18 -23 -4 0 5 -3 17 -7 27 -5 13 -3 15 7 9 9 -5 11 -4 6 3 -10
17 -26 15 -26 -2 0 -8 -6 -17 -12 -19 -8 -3 -5 -6 5 -6 10 -1 15 -5 12 -11 -3
-5 -2 -10 3 -10 5 0 9 -7 9 -15 0 -10 -4 -12 -12 -5 -8 7 -10 -17 -8 -88 5
-151 5 -151 22 -144 14 5 14 3 2 -11 -11 -14 -11 -17 0 -17 8 0 6 -6 -7 -16
-10 -8 -14 -13 -7 -10 15 8 25 -25 25 -76 -1 -21 3 -36 8 -33 5 3 7 -4 5 -15
-6 -29 5 -53 19 -42 6 5 34 12 61 16 28 3 70 14 94 23 43 16 43 17 38 57 -4
26 -2 35 4 25 5 -7 9 -24 9 -37 0 -20 4 -22 23 -17 12 4 33 14 47 23 14 9 49
29 78 44 60 32 72 40 119 87 l35 34 -3 86 c-1 47 -5 91 -8 96 -13 23 -13 30
-8 423 1 116 0 212 -3 212 -6 0 -6 62 0 68 1 1 3 5 4 10 3 15 18 32 39 44 21
11 21 10 7 -7 -14 -17 -13 -18 3 -12 10 4 21 7 23 7 2 0 4 9 4 21 0 11 -4 17
-10 14 -5 -3 -10 -1 -10 4 0 6 9 11 21 11 31 0 61 20 55 35 -7 19 6 26 24 14
13 -8 12 -11 -2 -20 -10 -5 -18 -17 -18 -25 0 -8 -8 -18 -17 -21 -18 -7 -33
-22 -33 -35 0 -5 22 8 49 27 50 36 121 108 121 123 0 5 6 9 13 10 12 0 30 5
82 20 36 10 44 45 37 157 l-5 74 -292 -6 -293 -6 -4 25 c-3 25 -3 25 -18 6z
m439 -291 c-2 -1 -12 -9 -22 -16 -15 -12 -17 -12 -11 3 3 9 13 16 22 16 8 0
13 -1 11 -3z m-744 -187 c3 -5 1 -10 -4 -10 -6 0 -11 5 -11 10 0 6 2 10 4 10
3 0 8 -4 11 -10z m-159 -195 c-1 -8 -5 -17 -8 -21 -5 -4 -4 16 1 34 3 9 9 -1
7 -13z m544 -65 c13 -8 13 -10 -2 -10 -9 0 -20 5 -23 10 -8 13 5 13 25 0z
m-84 -128 c1 -7 0 -8 -2 -3 -3 6 -12 7 -20 4 -8 -3 -14 0 -14 7 0 15 33 9 36
-8z m29 -2 c3 -5 1 -10 -4 -10 -6 0 -11 5 -11 10 0 6 2 10 4 10 3 0 8 -4 11
-10z m100 0 c3 -5 -1 -10 -9 -10 -9 0 -16 5 -16 10 0 6 4 10 9 10 6 0 13 -4
16 -10z m-80 -97 c18 -14 18 -15 2 -9 -10 3 -23 6 -28 6 -5 0 -9 5 -9 10 0 14
12 12 35 -7z m-46 -49 c25 -19 9 -24 -27 -8 -18 7 -31 18 -27 24 4 6 11 8 16
5 5 -4 10 2 10 12 1 16 2 16 6 -2 3 -11 13 -25 22 -31z m61 -34 c0 -5 -4 -10
-10 -10 -5 0 -10 5 -10 10 0 6 5 10 10 10 6 0 10 -4 10 -10z m61 -30 c32 -26
3 -27 -31 0 -19 15 -21 20 -9 20 9 0 27 -9 40 -20z m-51 -104 c0 -3 -4 -8 -10
-11 -5 -3 -10 -1 -10 4 0 6 5 11 10 11 6 0 10 -2 10 -4z m-38 -51 c29 -14 44
-22 33 -19 -11 3 -37 10 -59 15 -21 6 -48 15 -59 21 -16 8 -19 8 -14 -5 3 -9
-1 -18 -9 -21 -10 -4 -14 -1 -11 6 2 7 1 20 -4 29 -8 15 -4 16 31 8 21 -5 63
-20 92 -34z m-307 -32 c-10 -40 -17 -20 -9 23 5 24 9 32 12 21 2 -10 1 -30 -3
-44z m180 -13 c3 -5 1 -10 -4 -10 -6 0 -11 5 -11 10 0 6 2 10 4 10 3 0 8 -4
11 -10z m122 -32 c6 -5 13 -4 15 3 5 16 28 2 28 -17 0 -18 -14 -18 -50 1 -17
9 -30 13 -30 9 0 -4 -7 -1 -15 6 -37 31 10 28 52 -2z m-284 14 c-7 -5 -14 -20
-15 -34 -1 -15 -6 -24 -10 -22 -4 3 -5 11 -3 19 3 8 7 22 10 30 2 8 10 15 17
15 10 0 10 -2 1 -8z m378 -49 c13 -15 12 -15 -8 -4 -24 12 -29 21 -14 21 5 0
15 -7 22 -17z m-254 -25 c-3 -8 -6 -5 -6 6 -1 11 2 17 5 13 3 -3 4 -12 1 -19z
m33 -13 c0 -8 -2 -15 -4 -15 -2 0 -6 7 -10 15 -3 8 -1 15 4 15 6 0 10 -7 10
-15z m178 -6 c25 -10 27 -15 10 -25 -7 -5 -8 -3 -3 6 6 10 4 12 -8 7 -10 -3
-17 -2 -17 3 0 6 -8 10 -17 10 -10 0 -25 5 -33 10 -16 12 25 4 68 -11z m-223
-29 c-4 -12 -9 -19 -12 -17 -3 3 -2 15 2 27 4 12 9 19 12 17 3 -3 2 -15 -2
-27z m93 14 c33 -9 27 -24 -7 -18 -27 6 -28 4 -25 -22 4 -28 4 -29 -6 -5 -11
25 -7 51 7 51 4 0 18 -3 31 -6z m-208 -171 c-11 -17 -11 -17 -6 0 3 10 6 24 7
30 0 9 2 9 5 0 3 -7 0 -20 -6 -30z m37 5 c-3 -8 -6 -5 -6 6 -1 11 2 17 5 13 3
-3 4 -12 1 -19z"/>
<path d="M2383 5685 c0 -22 2 -30 4 -17 2 12 2 30 0 40 -3 9 -5 -1 -4 -23z"/>
<path d="M2430 5660 c-27 -6 -38 -43 -39 -131 l-1 -47 48 -12 c43 -12 45 -13
22 -20 -14 -5 -40 -8 -59 -9 -29 -1 -32 -3 -20 -17 7 -8 21 -13 30 -11 10 3
26 -1 35 -7 16 -12 16 -13 -2 -20 -16 -6 -15 -9 10 -21 15 -8 31 -13 35 -10 4
2 8 -2 8 -10 0 -8 -4 -15 -9 -15 -5 0 -6 -4 -3 -10 3 -5 1 -10 -5 -10 -7 0
-10 7 -6 15 3 8 1 15 -4 15 -14 0 -12 -24 2 -38 9 -9 9 -15 1 -23 -8 -8 -20 2
-43 35 -32 44 -57 62 -69 50 -3 -3 3 -12 14 -20 11 -8 27 -29 35 -47 12 -25
24 -34 58 -41 49 -10 61 -3 44 24 -10 16 -10 20 2 20 8 0 18 -4 21 -10 3 -5
36 -26 72 -47 37 -20 62 -38 56 -40 -6 -2 -28 8 -48 22 -21 14 -46 25 -57 25
-16 0 -17 -5 -12 -42 4 -24 11 -52 15 -63 6 -13 6 -6 2 19 -4 28 -3 37 6 32 6
-4 11 -16 11 -27 0 -10 5 -19 11 -19 6 0 9 -8 6 -17 -2 -10 3 -30 10 -45 11
-22 11 -28 1 -28 -9 0 -9 -3 2 -9 8 -6 18 -7 22 -5 4 3 8 -6 8 -20 0 -13 -6
-26 -12 -28 -9 -3 -8 -12 5 -31 9 -14 17 -34 16 -44 0 -14 -2 -13 -9 5 -6 12
-18 22 -30 22 -11 0 -20 -2 -20 -5 0 -2 20 -33 45 -68 25 -36 45 -67 45 -69 0
-3 17 -24 39 -47 21 -23 49 -62 62 -86 13 -25 27 -45 31 -45 11 0 10 18 -2 25
-5 3 -10 15 -10 26 0 10 -4 19 -10 19 -5 0 -16 12 -25 28 -42 74 -106 162
-119 162 -6 0 -4 4 4 10 16 10 43 -6 34 -21 -3 -5 2 -6 10 -3 10 4 16 1 16 -7
0 -7 3 -10 6 -6 3 3 -6 21 -20 40 -14 19 -26 41 -26 49 0 9 -7 21 -15 28 -9 7
-13 15 -10 18 7 8 55 -50 49 -60 -3 -5 0 -7 6 -6 7 2 17 -6 23 -17 7 -10 22
-28 35 -38 12 -10 22 -26 23 -35 0 -11 2 -12 6 -4 4 10 -56 105 -78 122 -3 3
-12 16 -19 29 -11 21 -10 23 4 18 9 -4 16 -2 16 4 0 6 6 9 14 6 10 -4 12 0 8
15 -4 16 -2 19 9 13 12 -7 12 -6 1 7 -14 18 -5 51 12 41 13 -7 -31 45 -54 64
-13 11 -13 12 3 13 12 0 16 5 11 13 -4 6 7 -1 24 -17 18 -16 30 -32 27 -34 -7
-7 28 -31 38 -25 4 2 -3 16 -17 31 -13 15 -43 48 -66 75 -24 26 -36 45 -28 42
9 -4 30 -24 47 -46 19 -23 37 -37 44 -33 7 4 9 4 5 -1 -6 -6 32 -45 44 -45 4
0 1 66 -5 117 -1 14 -8 22 -17 20 -8 -1 -14 4 -12 11 1 6 -3 12 -9 12 -5 0 -7
4 -4 10 3 5 23 8 43 6 29 -2 37 -7 37 -22 0 -10 3 -24 8 -31 4 -6 1 -18 -7
-26 -9 -8 -11 -19 -6 -27 17 -28 16 -410 -1 -410 -12 0 -17 24 -7 42 9 19 6
84 -5 95 -4 3 -7 1 -7 -6 0 -7 -5 -9 -11 -5 -8 4 -8 9 0 17 6 6 11 18 10 26 0
11 -3 10 -9 -4 -7 -17 -9 -17 -9 -2 -1 9 -5 17 -10 17 -5 0 -7 -10 -3 -22 4
-16 2 -19 -9 -13 -11 6 -12 5 -1 -6 6 -7 12 -19 12 -27 0 -7 7 -20 15 -28 16
-16 21 -59 6 -50 -5 3 -14 -1 -20 -8 -9 -11 -9 -16 0 -22 7 -4 9 -3 5 4 -3 6
-1 14 5 17 6 4 13 -2 16 -14 3 -12 12 -21 21 -21 13 0 12 -3 -4 -15 -10 -8
-14 -15 -9 -15 7 0 11 -51 11 -140 0 -113 -3 -140 -14 -140 -8 0 -12 -6 -8
-15 6 -18 -2 -45 -15 -45 -5 0 -9 8 -9 19 0 10 -9 30 -20 44 -11 14 -20 29
-20 34 0 4 -16 28 -35 52 -19 24 -35 39 -35 33 0 -6 4 -13 9 -16 5 -4 28 -41
51 -84 23 -42 48 -82 57 -89 10 -8 15 -30 15 -73 1 -66 -3 -76 -28 -66 -11 4
-15 14 -12 30 3 15 -2 27 -14 35 -10 6 -18 18 -18 25 0 8 -4 16 -8 18 -4 2
-21 26 -36 53 -16 28 -46 73 -67 101 -22 28 -39 54 -39 59 0 4 -16 28 -36 51
-19 24 -32 44 -28 44 10 0 79 -83 77 -92 -2 -4 3 -8 10 -8 12 -1 64 -74 122
-170 16 -28 36 -50 45 -50 10 0 11 3 4 8 -6 4 -26 36 -43 72 -18 36 -41 75
-52 86 -11 12 -19 25 -18 30 5 28 -3 44 -22 44 -13 0 -23 10 -30 30 -6 17 -15
30 -19 30 -4 0 -11 7 -14 16 -3 9 12 1 36 -18 l43 -33 -27 37 c-16 20 -28 41
-28 46 0 5 -9 21 -21 36 -11 14 -17 26 -12 26 11 0 70 -56 82 -78 5 -9 12 -14
15 -11 4 3 -14 31 -39 62 -25 30 -44 59 -43 65 2 5 -9 23 -24 40 -15 17 -24
33 -20 35 4 3 22 -17 41 -43 19 -26 44 -53 55 -60 18 -11 18 -10 -3 21 -12 19
-27 44 -33 57 -6 12 -17 22 -25 22 -7 0 -13 5 -13 11 0 5 6 7 13 3 6 -4 1 4
-13 19 l-25 26 -22 -21 c-13 -12 -25 -19 -28 -16 -10 9 -14 49 -6 43 5 -3 11
2 15 10 3 8 0 15 -7 16 -7 0 -2 4 11 9 12 5 22 15 23 22 0 7 3 26 5 42 5 29
-22 176 -32 176 -3 0 -12 -7 -20 -15 -9 -8 -11 -15 -6 -15 12 0 38 -63 47
-111 5 -30 3 -35 -20 -46 -17 -7 -23 -8 -18 0 4 6 0 8 -10 4 -15 -6 -16 -1
-11 31 4 28 2 41 -10 51 -9 7 -16 24 -16 37 0 13 -4 24 -10 24 -13 0 -13 -22
0 -56 6 -15 8 -29 6 -31 -10 -10 -54 46 -51 63 2 11 4 19 5 19 1 0 3 15 6 33
3 23 -2 38 -15 51 -11 11 -15 21 -9 23 17 6 -70 88 -93 88 -20 0 -20 -1 3 -29
13 -15 26 -26 31 -24 11 6 8 -15 -3 -22 -5 -3 -10 -1 -10 4 0 6 -11 11 -25 11
-27 0 -45 24 -38 50 4 14 -2 16 -39 12 -24 -2 -52 -4 -63 -3 -11 0 -29 0 -40
0 -38 -1 -50 -1 -93 2 -23 1 -44 0 -47 -2 -2 -3 -5 -23 -7 -44 -1 -22 -9 -47
-17 -55 -13 -13 -14 -13 -7 5 4 11 10 37 13 57 4 30 2 38 -11 38 -9 0 -16 -4
-16 -9 0 -5 -4 -21 -10 -36 -8 -21 -13 -24 -29 -16 -12 7 -30 7 -51 1 l-33 -9
22 22 c25 27 27 47 6 47 -8 0 -15 -9 -15 -19 0 -10 -7 -21 -15 -25 -19 -7 -20
-62 -1 -69 8 -3 20 1 26 9 13 15 38 18 64 8 25 -10 8 -24 -28 -24 -35 0 -61
-20 -53 -42 5 -15 -30 -63 -46 -63 -7 0 -12 -17 -12 -42 0 -23 -6 -48 -13 -55
-11 -11 -13 -10 -11 7 5 32 -10 75 -26 75 -17 0 -19 -23 -5 -51 9 -16 7 -19
-9 -19 -42 0 -51 10 -51 61 0 33 4 49 13 49 7 0 21 14 30 30 l18 30 -26 0
c-45 0 -67 -80 -44 -162 9 -35 13 -38 44 -38 19 0 35 -4 35 -10 0 -5 -5 -9
-12 -7 -12 2 -15 -4 -17 -49 -1 -28 -21 -24 -21 5 0 10 -11 28 -25 41 l-24 23
8 -29 c27 -89 43 -112 54 -81 2 6 8 0 12 -15 4 -16 10 -28 14 -28 4 0 14 -11
21 -25 11 -21 16 -23 28 -12 13 10 15 9 10 -4 -4 -9 2 -20 13 -27 10 -7 19
-18 19 -25 0 -9 -2 -9 -9 1 -13 22 -58 4 -67 -26 -4 -15 -7 -30 -6 -34 1 -5
-3 -8 -8 -8 -6 0 -10 -5 -10 -11 0 -6 -20 -34 -45 -62 -25 -29 -45 -56 -45
-61 0 -5 -17 -32 -38 -60 -46 -63 -66 -100 -60 -116 3 -11 88 101 88 117 0 7
70 102 92 124 28 28 59 79 61 98 0 10 6 17 13 14 22 -8 2 -52 -62 -132 -39
-48 -131 -186 -157 -233 -28 -51 -20 -68 9 -20 87 142 111 175 179 254 35 40
65 82 67 92 2 11 10 21 18 23 12 4 13 3 1 -5 -7 -5 -11 -15 -7 -21 4 -5 -6
-33 -22 -62 -17 -28 -32 -45 -34 -39 -2 7 -21 -16 -42 -50 -22 -35 -46 -70
-54 -79 -23 -27 -82 -124 -82 -138 0 -22 24 -4 53 40 85 129 231 307 252 307
6 0 -30 -53 -55 -80 -24 -27 -58 -71 -108 -140 -25 -36 -49 -67 -52 -70 -3 -3
-16 -22 -29 -43 -12 -20 -34 -40 -47 -43 -27 -7 -33 -24 -9 -24 9 0 33 -9 54
-20 21 -10 41 -17 44 -13 3 3 22 2 42 -1 31 -6 35 -9 24 -22 -7 -9 -21 -13
-30 -11 -10 3 -20 0 -23 -7 -3 -7 -5 -6 -5 3 -1 11 -4 11 -16 1 -9 -7 -15 -8
-15 -2 0 10 -49 26 -57 18 -3 -2 8 -11 23 -19 17 -9 23 -17 15 -21 -6 -4 -11
-16 -11 -26 0 -10 -5 -22 -10 -25 -20 -12 -45 5 -89 60 -24 30 -50 55 -57 55
-20 0 -19 -2 36 -60 51 -54 55 -75 14 -67 -13 2 -24 1 -24 -4 0 -4 15 -11 34
-15 26 -4 38 -13 47 -35 7 -18 28 -38 52 -51 34 -17 48 -19 83 -11 34 8 48 6
75 -8 19 -10 51 -18 71 -19 30 0 42 6 60 31 20 27 27 30 60 25 52 -8 86 8 104
49 8 19 19 35 25 35 5 0 8 4 4 9 -6 11 25 81 36 81 6 0 19 -34 19 -52 0 -5 -9
-17 -21 -29 l-21 -21 24 3 c13 2 39 -7 58 -19 21 -13 51 -22 76 -22 31 0 46
-6 65 -26 47 -52 128 -65 195 -32 15 7 28 7 42 -1 38 -20 102 -11 102 15 0 11
-5 11 -24 3 -28 -13 -79 -4 -74 13 3 9 57 20 100 19 10 0 20 5 23 10 4 5 11 6
17 3 7 -4 8 -2 4 4 -4 6 4 16 16 23 24 12 57 48 58 62 0 5 -12 0 -27 -11 -33
-23 -78 -39 -69 -24 3 5 -1 12 -9 16 -8 3 -15 0 -15 -7 0 -8 -4 -6 -10 3 -9
13 -14 7 -11 -12 0 -5 -10 -8 -24 -8 -22 0 -25 4 -23 28 1 15 -1 33 -5 39 -5
7 3 13 20 17 53 10 138 20 148 17 5 -1 17 -3 27 -4 9 -1 14 -5 12 -9 -8 -12
35 -68 52 -68 13 0 92 -45 104 -59 12 -14 88 -61 120 -74 47 -19 131 -22 142
-5 5 8 7 2 6 -19 -1 -17 3 -37 9 -45 6 -7 14 -24 18 -38 4 -14 18 -47 31 -74
28 -59 27 -53 9 -53 -8 0 -12 3 -10 7 4 7 -38 30 -55 30 -5 0 -1 -15 10 -32
26 -42 60 -117 60 -130 0 -5 7 -22 15 -36 8 -15 21 -44 29 -64 18 -45 28 -47
59 -12 l22 26 7 -94 c13 -162 20 -212 33 -231 8 -11 11 -25 9 -32 -3 -7 -7
-37 -8 -66 -3 -60 -21 -153 -35 -184 -29 -63 -29 -156 0 -115 9 12 10 12 5 -3
-3 -10 -1 -27 4 -38 6 -11 7 -19 1 -19 -11 0 -20 -22 -31 -82 -5 -26 -19 -67
-30 -90 -11 -23 -25 -69 -31 -102 -6 -34 -13 -71 -15 -84 -3 -13 -8 -20 -13
-18 -5 3 -11 -13 -15 -37 -5 -39 -23 -130 -29 -152 -1 -5 -6 -15 -10 -22 -12
-19 -47 -165 -42 -173 3 -4 -2 -10 -10 -14 -8 -3 -15 -11 -15 -19 0 -7 -9 -32
-20 -55 -11 -23 -21 -53 -22 -66 -1 -14 -8 -28 -15 -30 -7 -3 -10 -12 -7 -20
3 -7 -6 -25 -20 -39 -14 -15 -26 -30 -26 -35 0 -5 -7 -16 -16 -23 -14 -11 -18
-10 -30 6 -8 10 -14 14 -14 9 0 -5 -18 -8 -40 -6 -22 2 -40 8 -40 13 0 5 -7 9
-15 9 -8 0 -15 -4 -15 -10 0 -13 -36 -13 -63 1 -16 9 -22 9 -25 1 -3 -9 -9 -9
-23 -2 -10 6 -19 8 -19 4 0 -4 -10 2 -22 14 -35 32 -98 53 -98 32 0 -5 7 -10
15 -10 8 0 15 -4 15 -10 0 -14 -27 -13 -36 1 -4 7 -26 9 -58 6 -33 -3 -61 0
-78 9 -17 9 -29 10 -33 4 -3 -6 -16 -10 -28 -10 -18 0 -19 2 -7 10 12 8 11 10
-7 10 -13 0 -23 -6 -23 -14 0 -13 -27 -31 -42 -28 -4 1 -5 -12 -1 -28 3 -19 1
-30 -6 -30 -6 0 -11 -9 -11 -20 0 -11 -7 -20 -15 -20 -8 0 -18 -12 -21 -26 -4
-15 -24 -44 -45 -65 -22 -22 -39 -45 -39 -52 0 -8 4 -7 10 3 5 8 10 11 10 6 0
-5 8 -2 18 7 16 15 17 10 16 -88 0 -70 -4 -108 -13 -119 -12 -15 -8 -20 12
-17 5 1 6 -3 2 -9 -3 -5 1 -13 10 -17 10 -3 20 0 25 7 10 16 71 -96 63 -117
-5 -12 -3 -14 7 -8 10 6 12 4 7 -8 -3 -9 -2 -19 4 -22 5 -4 18 -24 30 -46 20
-41 18 -64 -7 -55 -8 3 -13 1 -11 -4 4 -19 -124 -117 -206 -158 -122 -61 -196
-81 -302 -80 -187 0 -283 53 -476 264 -16 17 -29 36 -29 41 0 15 78 155 99
178 10 11 22 30 25 41 4 12 16 24 26 27 11 3 20 12 20 20 0 8 9 17 21 20 19 5
20 11 15 99 -3 51 -7 104 -9 118 -3 14 -5 36 -6 49 -1 22 -4 23 -38 18 -21 -3
-48 -8 -60 -11 -15 -3 -20 -1 -17 8 3 8 -2 16 -10 19 -9 4 -16 1 -16 -6 0 -7
-5 -4 -11 6 -8 14 -14 15 -24 7 -14 -11 -61 -4 -82 12 -7 5 -14 5 -18 -2 -3
-5 -14 -10 -24 -10 -22 0 -54 33 -44 45 5 4 2 5 -5 1 -14 -8 -42 15 -43 36 0
8 -3 7 -7 -3 -6 -15 -12 -14 -66 3 -33 11 -68 17 -78 15 -10 -3 -18 0 -18 6 0
7 -7 3 -15 -7 -8 -11 -15 -14 -15 -7 0 7 -5 9 -10 6 -6 -3 -10 -2 -10 4 0 6
-8 7 -22 2 -16 -6 -21 -17 -23 -44 -1 -31 5 -43 34 -70 20 -18 45 -39 56 -46
19 -11 18 -12 -5 -6 -22 5 -23 4 -7 -5 12 -8 22 -8 30 -2 7 5 21 6 32 1 18 -7
18 -8 1 -8 -11 -1 -16 -6 -13 -15 4 -10 0 -12 -16 -8 -18 4 -20 3 -11 -9 16
-21 9 -78 -13 -94 -13 -10 -19 -11 -22 -2 -2 7 -9 19 -17 27 -7 8 -14 22 -16
30 -2 8 -5 17 -8 20 -10 9 -90 188 -90 201 0 7 -2 10 -5 7 -16 -15 29 -160 90
-293 49 -105 79 -187 95 -255 27 -116 88 -254 203 -460 144 -258 233 -380 362
-492 138 -121 271 -171 455 -172 104 -1 106 0 214 47 178 78 262 150 448 388
150 193 304 454 415 706 88 198 124 302 163 463 75 314 93 370 107 333 2 -7
18 -29 35 -50 55 -70 70 -109 63 -168 -12 -93 18 -118 166 -136 52 -6 121 -20
154 -30 33 -11 93 -22 133 -26 l72 -6 0 125 c0 108 -2 127 -18 141 -25 23 -64
22 -61 -1 1 -9 1 -22 0 -29 -2 -18 -59 -33 -125 -33 -59 0 -64 2 -101 40 -21
22 -48 40 -60 40 -44 0 -45 8 -30 140 26 229 30 442 10 560 -9 58 -21 114 -25
125 -15 40 -42 91 -75 145 -26 40 -35 66 -36 100 -1 25 -3 37 -6 27 -4 -16 -7
-15 -25 8 -30 39 -25 124 12 189 10 17 21 47 25 66 4 19 18 67 31 106 13 39
31 134 40 210 18 152 21 179 24 179 2 0 4 9 6 20 2 11 9 47 15 80 6 36 9 111
5 185 -4 105 -10 140 -36 215 -26 74 -33 115 -41 235 -10 151 -17 196 -18 121
-1 -24 -4 -41 -7 -38 -12 11 -12 92 0 99 8 5 8 10 -1 19 -6 6 -9 18 -6 25 3 7
-14 52 -37 99 -29 61 -58 103 -101 146 -32 32 -63 59 -68 59 -10 0 -26 -52
-30 -100 -1 -13 -2 -13 -11 0 -8 11 -9 9 -5 -11 4 -16 1 -30 -9 -38 -12 -10
-14 -9 -10 6 3 10 -2 27 -11 38 -14 19 -15 19 -8 1 5 -15 3 -17 -7 -11 -10 6
-12 4 -7 -11 5 -14 2 -12 -13 6 -11 14 -20 29 -20 33 0 5 -4 6 -9 3 -5 -3 -12
2 -15 11 -4 9 -1 20 6 24 11 7 11 12 0 29 -15 25 -5 26 21 3 23 -20 18 -9 -16
41 -16 22 -17 30 -7 36 7 5 10 15 6 25 -5 15 -4 16 9 5 28 -23 39 -51 24 -61
-10 -6 -10 -9 -2 -9 6 0 15 5 19 11 9 16 12 79 3 74 -4 -3 -10 1 -12 7 -4 8
-6 7 -6 -4 -1 -9 5 -19 12 -21 8 -4 7 -6 -4 -6 -9 -1 -21 14 -29 34 -8 21 -17
31 -21 24 -4 -7 -6 -1 -6 14 2 20 5 23 16 14 11 -10 13 -8 7 9 -8 25 15 39 34
21 10 -10 12 -8 7 6 -4 10 -3 16 2 12 5 -3 12 -20 16 -38 4 -17 13 -42 21 -54
12 -20 21 -57 23 -100 1 -7 6 -13 12 -13 6 0 9 7 5 15 -3 8 6 32 20 53 57 83
164 335 164 386 0 24 -38 66 -59 66 -8 0 -31 5 -52 12 -30 9 -39 16 -39 34 0
19 -4 22 -30 19 -17 -2 -28 0 -25 5 9 15 -12 20 -24 6 -10 -12 -44 -14 -184
-10 -95 3 -233 7 -307 9 -136 3 -341 15 -350 19 -3 2 -16 0 -30 -4z m94 -226
c9 -3 16 -13 16 -20 0 -8 16 -24 35 -36 20 -11 34 -23 31 -25 -3 -3 -21 4 -41
16 -20 12 -48 22 -61 23 -13 1 -24 6 -24 10 0 4 -7 8 -15 8 -8 0 -15 5 -15 10
0 14 22 12 46 -5 12 -8 24 -11 28 -8 4 4 -4 13 -16 20 -24 13 -12 18 16 7z
m131 -54 c3 -5 1 -10 -4 -10 -6 0 -11 5 -11 10 0 6 2 10 4 10 3 0 8 -4 11 -10z
m-100 -38 c11 -7 33 -18 49 -26 20 -9 24 -15 13 -19 -8 -3 -24 1 -35 8 -10 8
-22 12 -25 9 -9 -9 -48 36 -41 47 4 6 9 7 13 3 3 -5 15 -15 26 -22z m-452 -7
c10 -23 -48 -32 -81 -12 -20 13 -6 23 36 25 28 2 41 -2 45 -13z m637 -9 c0 -9
-30 -14 -35 -6 -4 6 3 10 14 10 12 0 21 -2 21 -4z m415 -341 c0 -330 -7 -464
-31 -570 -8 -38 -16 -75 -18 -82 -1 -7 -6 -16 -11 -20 -4 -4 -6 2 -3 14 3 12
1 25 -6 28 -8 3 -8 7 2 11 18 8 15 44 -5 67 -10 11 -12 17 -5 13 8 -5 12 -1
12 11 0 11 5 24 12 31 9 9 8 16 -4 29 -17 21 -35 52 -23 41 4 -4 19 7 32 24
l23 32 -25 13 c-30 16 -33 33 -5 28 18 -3 20 2 20 45 0 43 -2 49 -17 44 -10
-3 -3 4 15 16 33 23 40 36 21 42 -7 2 -7 18 1 53 8 35 8 51 1 53 -14 5 -14 32
-1 32 6 0 10 9 10 20 0 11 -5 20 -11 20 -8 0 -8 4 0 14 7 9 9 29 5 55 -6 37
-8 40 -28 29 -20 -10 -20 -10 2 14 29 32 28 40 -4 28 -14 -6 -30 -7 -36 -4 -7
4 -8 2 -4 -4 7 -12 -54 -27 -76 -19 -17 6 33 27 91 38 55 11 61 17 37 35 -19
13 -19 14 -2 14 17 0 18 7 12 73 -5 60 -4 69 6 52 9 -15 13 -98 13 -320z
m-392 302 c4 3 7 -1 7 -10 0 -9 3 -17 8 -17 4 0 13 -10 21 -22 7 -13 10 -20 6
-15 -5 4 -17 -1 -28 -10 -11 -10 -17 -13 -14 -7 4 7 -9 26 -29 44 -25 22 -30
30 -18 28 14 -2 18 2 16 17 -2 19 -2 19 11 3 8 -10 17 -15 20 -11z m-83 -2
c10 -12 10 -15 -2 -15 -8 0 -15 7 -15 15 0 8 1 15 2 15 2 0 8 -7 15 -15z m420
-16 c0 -12 -34 -20 -71 -18 -46 3 -59 12 -29 20 32 9 100 7 100 -2z m-800 -19
c0 -5 -4 -10 -10 -10 -5 0 -10 5 -10 10 0 6 5 10 10 10 6 0 10 -4 10 -10z
m798 -17 c-10 -2 -26 -2 -35 0 -10 3 -2 5 17 5 19 0 27 -2 18 -5z m-18 -17 c0
-2 -7 -7 -16 -10 -8 -3 -12 -2 -9 4 6 10 25 14 25 6z m-970 -36 c0 -23 -13
-32 -34 -24 -19 7 -21 40 -3 47 20 7 37 -4 37 -23z m558 -34 c17 -16 32 -24
32 -17 0 7 5 9 10 6 6 -4 8 -10 5 -15 -3 -5 -1 -11 5 -15 5 -3 10 -11 10 -17
0 -6 -8 -4 -18 5 -10 10 -22 14 -27 10 -4 -5 -5 -3 -1 4 8 15 -10 27 -20 12
-4 -8 4 -22 21 -35 16 -13 27 -25 24 -28 -3 -3 -27 17 -54 44 -27 28 -44 50
-38 50 6 0 16 -7 23 -15 7 -8 17 -12 23 -8 6 4 -6 21 -29 41 -21 19 -30 29
-19 21 11 -7 35 -26 53 -43z m150 34 c7 -11 11 -20 9 -20 -2 0 -12 9 -22 20
-10 11 -14 20 -9 20 5 0 15 -9 22 -20z m-955 -27 c8 -7 -11 -33 -24 -33 -5 0
-9 9 -9 20 0 19 20 27 33 13z m477 -23 c0 -11 -4 -20 -9 -20 -11 0 -22 26 -14
34 12 12 23 5 23 -14z m660 10 c0 -5 -5 -10 -11 -10 -5 0 -7 5 -4 10 3 6 8 10
11 10 2 0 4 -4 4 -10z m-1190 -30 c0 -5 -4 -10 -10 -10 -5 0 -10 5 -10 10 0 6
5 10 10 10 6 0 10 -4 10 -10z m1270 -33 c0 -7 -9 -13 -20 -14 -11 -1 -20 3
-20 8 0 6 5 7 10 4 6 -3 10 -1 10 4 0 6 5 11 10 11 6 0 10 -6 10 -13z m-80
-27 c0 -5 -5 -10 -11 -10 -5 0 -7 5 -4 10 3 6 8 10 11 10 2 0 4 -4 4 -10z
m130 -20 c0 -5 -10 -10 -22 -9 -22 0 -22 1 -3 9 11 5 21 9 23 9 1 1 2 -3 2 -9z
m-73 -21 c-9 -5 -21 -8 -26 -4 -5 3 -11 0 -13 -7 -2 -6 -13 -13 -24 -14 -16
-3 -15 0 6 16 14 11 36 20 50 19 22 0 23 -1 7 -10z m331 -63 c12 4 11 1 -4
-13 -19 -16 -22 -28 -20 -90 0 -39 -2 -69 -6 -66 -5 2 -8 31 -8 63 0 38 -4 60
-12 63 -10 4 -10 7 0 18 6 7 12 27 13 44 l1 30 9 -27 c7 -19 15 -25 27 -22z
m-323 14 c-3 -5 -14 -10 -23 -10 -15 0 -15 2 -2 10 20 13 33 13 25 0z m-1325
-45 c0 -8 -4 -15 -9 -15 -5 0 -11 7 -15 15 -3 9 0 15 9 15 8 0 15 -7 15 -15z
m1500 -48 c-10 -9 -11 -9 -6 0 3 6 3 14 -2 17 -4 2 -9 -4 -9 -15 -1 -10 2 -19
8 -19 5 0 9 -6 9 -13 0 -16 30 -19 30 -3 0 6 5 3 11 -6 5 -10 17 -15 27 -12
13 5 14 4 3 -4 -7 -5 -22 -7 -32 -5 -11 3 -19 0 -19 -6 0 -7 6 -9 13 -5 7 4 9
3 4 -2 -5 -5 -14 -9 -20 -9 -7 0 -10 -9 -9 -20 3 -16 2 -17 -12 -6 -9 8 -16
12 -16 9 0 -6 40 -83 41 -78 0 3 2 13 4 23 2 9 -1 15 -6 11 -12 -7 -11 7 1 26
8 13 9 13 14 0 11 -36 13 -60 6 -55 -11 7 -40 -34 -40 -55 0 -13 1 -13 10 0 7
11 9 3 7 -27 -1 -24 -6 -43 -10 -43 -5 0 -5 -5 -2 -11 4 -5 8 -21 10 -35 2
-23 1 -24 -16 -8 -21 19 -24 13 -10 -15 6 -10 6 -23 1 -31 -7 -12 -10 -12 -16
3 -3 9 -10 17 -15 17 -4 0 -2 -15 6 -33 8 -19 10 -39 6 -46 -7 -11 -10 -11
-14 0 -3 8 -3 -1 0 -20 6 -31 4 -34 -15 -29 -24 7 -28 -2 -11 -19 13 -13 -2
-25 -19 -14 -8 5 -9 16 -2 40 9 33 31 237 34 316 1 25 6 39 13 38 7 -2 10 4 7
12 -4 8 -9 13 -13 11 -8 -6 4 158 14 173 4 8 14 3 27 -14 17 -21 18 -29 8 -38z
m204 39 c-3 -7 -18 -10 -39 -8 -44 5 -37 20 9 20 23 0 33 -4 30 -12z m-394 -6
c0 -5 -2 -10 -4 -10 -3 0 -8 5 -11 10 -3 6 -1 10 4 10 6 0 11 -4 11 -10z
m-632 -12 c-6 -18 -28 -21 -28 -4 0 9 7 16 16 16 9 0 14 -5 12 -12z m862 -20
c0 -19 -2 -20 -10 -8 -13 19 -13 30 0 30 6 0 10 -10 10 -22z m50 6 c0 -8 -5
-12 -10 -9 -6 4 -8 11 -5 16 9 14 15 11 15 -7z m155 -14 c8 -13 -5 -13 -25 0
-13 8 -13 10 2 10 9 0 20 -4 23 -10z m-935 -35 l25 -30 -27 24 c-16 14 -28 29
-28 34 0 6 1 8 3 6 1 -2 13 -17 27 -34z m930 4 c0 -5 -20 -9 -45 -9 -44 0 -63
15 -27 22 26 5 72 -3 72 -13z m-1053 -16 c45 -43 62 -72 23 -38 -19 17 -36 33
-38 38 -2 4 -10 7 -18 7 -8 0 -14 5 -14 10 0 17 18 11 47 -17z m1029 -13 c13
0 24 -4 24 -9 0 -8 -21 -9 -78 -2 -7 0 -10 6 -7 12 4 6 14 8 22 5 8 -3 26 -6
39 -6z m-1546 -10 c13 -9 13 -10 0 -10 -8 0 -22 5 -30 10 -13 9 -13 10 0 10 8
0 22 -5 30 -10z m655 -50 l30 -35 -28 25 c-16 14 -33 34 -39 45 -11 21 -10 20
37 -35z m525 34 c0 -2 -7 -4 -15 -4 -8 0 -15 4 -15 10 0 5 7 7 15 4 8 -4 15
-8 15 -10z m-930 -32 c0 -5 -5 -13 -12 -20 -8 -8 -9 -12 -1 -12 11 0 13 -24
15 -197 0 -34 -3 -75 -7 -90 -6 -26 -7 -27 -18 -8 -16 29 -18 59 -15 252 2 94
3 101 20 92 10 -5 18 -13 18 -17z m1325 8 c-28 -12 -85 -12 -85 0 0 6 24 10
53 9 38 0 47 -3 32 -9z m-956 -54 c-3 -3 -11 5 -18 17 -13 21 -12 21 5 5 10
-10 16 -20 13 -22z m823 12 c-7 -7 -12 -8 -12 -2 0 6 3 14 7 17 3 4 9 5 12 2
2 -3 -1 -11 -7 -17z m148 12 c12 -8 11 -10 -7 -10 -13 0 -23 5 -23 10 0 13 11
13 30 0z m-1540 -15 c0 -8 -25 -41 -55 -72 -30 -32 -55 -63 -55 -70 0 -6 -4
-15 -10 -18 -5 -3 -10 1 -10 9 0 9 27 45 60 82 33 36 60 70 60 75 0 5 2 9 5 9
3 0 5 -7 5 -15z m290 -21 c0 -6 -7 -11 -15 -11 -15 0 -21 28 -8 40 7 8 23 -12
23 -29z m1196 20 c-22 -15 -56 -19 -56 -6 0 15 9 19 43 20 30 1 31 0 13 -14z
m-955 -11 c13 -16 12 -17 -3 -4 -10 7 -18 15 -18 17 0 8 8 3 21 -13z m858 -75
c0 -40 -6 -97 -12 -127 -9 -45 -12 -50 -19 -31 -5 13 -4 28 1 34 5 6 9 38 10
71 1 62 10 125 18 125 2 0 3 -33 2 -72z m191 36 c5 -5 -11 -10 -38 -12 -26 -2
-62 -8 -79 -14 -37 -13 -52 -6 -34 16 20 23 130 31 151 10z m-929 -114 c58
-77 81 -112 109 -168 17 -34 29 -70 27 -80 -4 -13 -5 -12 -6 4 0 12 -8 27 -16
34 -9 7 -26 36 -39 64 -13 29 -31 57 -39 64 -8 7 -21 26 -27 43 -10 22 -15 27
-21 17 -7 -10 -9 -9 -9 4 0 9 -13 40 -30 68 -39 66 -38 76 1 19 18 -24 40 -55
50 -69z m-358 80 c-3 -11 -7 -20 -9 -20 -2 0 -4 9 -4 20 0 11 4 20 9 20 5 0 7
-9 4 -20z m162 10 c3 -5 1 -10 -4 -10 -6 0 -11 5 -11 10 0 6 2 10 4 10 3 0 8
-4 11 -10z m-484 -43 l-24 -22 19 27 c10 14 21 24 23 22 3 -3 -6 -15 -18 -27z
m87 13 c-7 -10 -14 -17 -17 -15 -4 4 18 35 25 35 2 0 -1 -9 -8 -20z m1525 10
c33 0 17 -20 -17 -20 -18 0 -50 -7 -69 -15 -36 -15 -97 -21 -97 -9 0 21 23 40
51 42 18 1 35 5 38 8 3 3 21 3 41 0 19 -3 43 -5 53 -6z m-1573 -57 c-27 -36
-76 -101 -98 -133 -23 -33 -86 -99 -76 -80 11 22 67 94 77 98 4 2 14 17 23 34
15 28 82 108 91 108 3 0 -5 -12 -17 -27z m591 -121 c22 -40 39 -77 37 -83 -2
-5 -16 17 -33 49 -16 31 -33 59 -37 60 -5 2 -8 10 -8 17 0 8 -16 31 -35 52
-19 21 -35 43 -35 48 1 19 71 -71 111 -143z m-10 121 c13 -16 12 -17 -3 -4
-17 13 -22 21 -14 21 2 0 10 -8 17 -17z m987 0 c-2 -11 -23 -24 -58 -35 -55
-17 -55 -17 -11 -12 30 4 41 3 37 -5 -5 -7 2 -11 19 -11 56 0 12 -18 -61 -25
-81 -7 -105 -25 -69 -51 18 -13 18 -14 -2 -14 -16 0 -20 -5 -16 -21 3 -11 15
-25 27 -29 20 -8 20 -9 1 -10 -11 0 -27 -5 -35 -11 -13 -9 -12 -10 3 -5 13 4
17 0 17 -20 0 -16 4 -23 12 -18 7 4 8 3 4 -4 -4 -7 -18 -12 -32 -12 -13 0 -24
-4 -24 -9 0 -19 25 -17 69 6 46 23 81 30 81 16 0 -11 -58 -43 -76 -43 -8 0
-22 -4 -32 -9 -9 -5 -25 -12 -35 -15 -11 -4 -15 -11 -11 -17 5 -8 3 -9 -6 -4
-17 10 -5 187 15 227 7 15 10 28 5 28 -11 0 -5 69 6 79 13 11 83 30 124 34 19
2 39 5 43 5 5 1 7 -6 5 -15z m-1737 -40 c-26 -51 -154 -198 -159 -183 -2 6 9
26 25 43 16 18 45 52 63 77 35 46 81 100 87 100 2 0 -5 -17 -16 -37z m62 -10
c-15 -21 -30 -40 -33 -43 -3 -3 -22 -30 -42 -60 -37 -56 -88 -111 -88 -94 0 5
37 54 81 109 44 55 83 106 86 113 3 6 9 12 15 12 5 0 -4 -17 -19 -37z m577 -4
c0 -6 -4 -7 -10 -4 -5 3 -10 11 -10 16 0 6 5 7 10 4 6 -3 10 -11 10 -16z
m-437 -4 c-3 -9 -8 -14 -10 -11 -3 3 -2 9 2 15 9 16 15 13 8 -4z m405 -50 c-3
-3 -13 7 -23 22 l-17 28 23 -22 c12 -12 20 -25 17 -28z m99 -37 c-4 -9 -6 -9
-6 2 -1 8 -13 26 -26 39 -14 13 -25 27 -25 32 0 6 14 -6 31 -25 17 -20 28 -41
26 -48z m163 -43 c22 -43 37 -81 35 -83 -3 -3 -19 27 -38 65 -18 38 -43 84
-55 100 -12 17 -22 35 -22 40 1 18 43 -46 80 -122z m388 100 c-3 -3 -9 2 -12
12 -6 14 -5 15 5 6 7 -7 10 -15 7 -18z m-1094 -17 c-7 -25 -81 -128 -91 -128
-3 0 2 10 11 23 8 12 30 45 48 74 36 58 43 64 32 31z m273 -10 c-3 -7 -5 -2
-5 12 0 14 2 19 5 13 2 -7 2 -19 0 -25z m1272 5 c-12 -15 -12 -16 3 -10 10 3
20 2 23 -3 4 -6 0 -11 -7 -11 -7 -1 -28 -3 -45 -5 -20 -2 -33 1 -33 7 0 7 -11
9 -30 6 -16 -4 -30 -2 -30 3 0 5 21 12 48 15 42 6 69 10 81 14 2 0 -3 -7 -10
-16z m-1493 -20 c-8 -16 -31 -46 -51 -68 -30 -34 -29 -30 11 28 50 71 64 85
40 40z m359 -19 c16 -20 23 -35 16 -33 -12 4 -57 69 -48 69 2 0 17 -16 32 -36z
m96 -29 c8 -16 6 -15 -10 4 -12 13 -21 28 -21 35 0 12 14 -5 31 -39z m86 -22
c37 -80 37 -80 25 -68 -14 13 -62 103 -62 116 0 21 12 6 37 -48z m947 36 c-2
-4 6 -9 18 -11 33 -6 -59 -25 -94 -20 -40 6 -34 18 15 29 52 11 67 12 61 2z
m-484 -18 c0 -6 -4 -12 -8 -15 -5 -3 -9 1 -9 9 0 8 4 15 9 15 4 0 8 -4 8 -9z
m-600 -31 c6 -11 8 -20 6 -20 -3 0 -10 9 -16 20 -6 11 -8 20 -6 20 3 0 10 -9
16 -20z m1086 -15 c0 -15 -7 -25 -16 -25 -8 0 -24 -3 -36 -6 -13 -3 -28 1 -39
12 -17 17 -16 18 21 30 62 19 72 17 70 -11z m69 1 c0 -15 -4 -21 -9 -16 -5 5
-6 16 -3 24 9 22 12 20 12 -8z m-1064 -13 c13 -16 12 -17 -3 -4 -10 7 -18 15
-18 17 0 8 8 3 21 -13z m132 -13 c10 -16 14 -30 8 -30 -5 0 -19 14 -31 30 -15
21 -17 30 -8 30 8 0 22 -13 31 -30z m650 -61 c-6 -6 -7 3 -4 23 4 28 6 29 9 9
2 -13 0 -27 -5 -32z m-1193 20 c-19 -5 -75 -11 -123 -14 -48 -2 -91 -6 -95 -9
-4 -2 -13 2 -19 10 -14 14 14 17 197 21 62 1 69 0 40 -8z m200 -9 c0 -5 -9 -6
-20 -3 -11 3 -20 9 -20 13 0 5 9 6 20 3 11 -3 20 -9 20 -13z m1215 -1 c-21 -6
-31 -15 -31 -29 0 -11 7 -20 15 -20 11 0 8 -5 -7 -16 -13 -9 -31 -14 -40 -12
-10 3 -23 -1 -30 -9 -17 -18 -36 -17 -28 2 6 18 -7 19 -36 4 -14 -8 -23 -8
-31 0 -8 8 -5 11 11 11 28 0 73 21 66 31 -3 5 1 6 9 3 8 -3 21 2 30 11 19 19
55 34 82 33 13 0 9 -3 -10 -9z m55 -18 c0 -11 -4 -22 -9 -25 -4 -3 -8 -24 -8
-46 0 -23 -6 -47 -13 -53 -10 -10 -11 -5 -6 23 3 19 8 54 12 78 7 42 24 59 24
23z m-1290 -123 c0 -11 -27 -10 -50 2 -24 13 -43 47 -35 60 6 10 85 -47 85
-62z m1235 42 c3 -5 -3 -10 -15 -10 -12 0 -18 5 -15 10 3 6 10 10 15 10 5 0
12 -4 15 -10z m-131 -22 c4 6 13 9 21 5 8 -3 15 -1 15 4 0 5 7 10 15 10 8 0
12 -4 9 -8 -2 -4 6 -10 18 -12 13 -2 0 -5 -28 -6 -35 -1 -54 -6 -57 -15 -7
-17 31 -34 42 -20 9 13 53 14 48 1 -1 -5 -30 -18 -62 -28 -59 -18 -60 -18 -35
1 l25 18 -28 7 c-21 6 -25 10 -17 20 6 7 7 21 4 31 -6 18 -6 18 8 0 10 -13 17
-15 22 -8z m-1324 -15 c0 -18 -36 -43 -62 -43 -37 0 -36 13 5 33 34 17 57 21
57 10z m-383 -71 c-32 -4 -77 21 -77 43 0 11 13 7 52 -13 49 -25 51 -27 25
-30z m763 29 c64 -18 65 -19 38 -31 -34 -16 -95 -1 -123 30 -18 19 -17 20 1
20 10 -1 48 -9 84 -19z m-540 -21 c0 -5 -13 -16 -29 -25 -24 -12 -36 -13 -58
-4 l-28 12 50 12 c66 17 65 17 65 5z m1580 4 c0 -7 -111 -56 -117 -51 -4 4 97
57 110 57 4 0 7 -2 7 -6z m109 -71 c1 -12 -6 -28 -14 -36 -9 -9 -11 -17 -4
-19 14 -5 1 -35 -18 -42 -9 -4 -17 -5 -19 -4 -1 2 7 41 19 87 17 66 23 79 28
60 4 -13 7 -34 8 -46z m-159 -7 c-25 -13 -47 -21 -50 -19 -6 5 26 25 55 35 41
13 39 7 -5 -16z m15 -45 c-6 -5 -23 -12 -40 -15 l-30 -6 30 14 c35 18 54 20
40 7z m190 -52 c-3 -4 -12 -6 -20 -3 -8 4 -13 10 -10 15 3 4 12 6 20 3 8 -4
13 -10 10 -15z m-250 -10 c10 -15 -1 -23 -20 -15 -9 3 -13 10 -10 16 8 13 22
13 30 -1z m195 -21 c0 -6 -8 -4 -17 3 -15 12 -16 12 -10 -4 5 -13 0 -20 -16
-27 -13 -5 -16 -9 -6 -9 8 -1 19 3 25 9 6 6 15 6 24 0 10 -7 11 -10 3 -10 -7
0 -23 -10 -35 -22 -16 -16 -23 -18 -26 -9 -4 11 -6 11 -14 0 -7 -10 -8 -9 -3
6 3 11 9 32 12 47 5 26 26 39 51 30 6 -2 12 -9 12 -14z m-242 -93 c-3 -3 -9 2
-12 12 -6 14 -5 15 5 6 7 -7 10 -15 7 -18z m202 1 c0 -3 -4 -8 -10 -11 -5 -3
-10 -1 -10 4 0 6 5 11 10 11 6 0 10 -2 10 -4z m-35 -66 c3 -5 -3 -10 -15 -10
-12 0 -18 5 -15 10 3 6 10 10 15 10 5 0 12 -4 15 -10z m-116 -134 c-11 -12
-24 0 -33 31 l-7 23 25 -23 c16 -14 21 -26 15 -31z m68 -148 c-3 -8 -6 -5 -6
6 -1 11 2 17 5 13 3 -3 4 -12 1 -19z m155 -599 c10 -5 18 -17 18 -26 0 -12 -3
-13 -15 -3 -11 10 -18 9 -30 -3 -8 -9 -24 -19 -35 -22 -11 -3 -19 -9 -18 -13
1 -4 -13 -29 -32 -55 -33 -46 -35 -47 -43 -25 -12 31 9 86 44 119 16 15 31 24
34 21 3 -3 5 -1 5 4 0 12 51 14 72 3z m-28 -141 c5 -9 7 -21 3 -25 -5 -4 -12
-1 -17 7 -7 12 -12 12 -28 -3 -25 -23 -35 -11 -15 20 18 26 40 27 57 1z m-202
-110 c-8 -8 -9 -4 -5 13 4 13 8 18 11 10 2 -7 -1 -18 -6 -23z m278 -244 c-19
-282 -21 -304 -32 -304 -6 0 -23 11 -39 24 -15 13 -51 35 -78 48 -54 25 -63
44 -32 72 26 24 84 140 84 171 0 14 4 28 10 32 6 4 7 1 3 -8 -4 -8 0 -5 8 5 9
11 16 28 16 38 0 10 4 18 8 18 5 0 16 25 26 56 31 99 39 54 26 -152z m-255
176 c3 -5 1 -10 -4 -10 -6 0 -11 5 -11 10 0 6 2 10 4 10 3 0 8 -4 11 -10z
m128 -102 c32 6 21 -50 -20 -97 -28 -33 -41 -42 -60 -38 -13 2 -23 -1 -23 -7
-1 -19 -80 75 -80 95 0 20 19 36 29 23 3 -5 30 -9 59 -9 48 -1 52 1 52 23 0
16 4 21 13 15 6 -4 20 -6 30 -5z m-188 -108 c3 -5 1 -10 -4 -10 -6 0 -11 5
-11 10 0 6 2 10 4 10 3 0 8 -4 11 -10z m25 -35 c11 -13 10 -14 -4 -9 -9 3 -16
10 -16 15 0 13 6 11 20 -6z m-630 -449 c0 -3 -4 -8 -10 -11 -5 -3 -10 -1 -10
4 0 6 5 11 10 11 6 0 10 -2 10 -4z m-1660 -86 c11 -8 8 -9 -14 -6 -16 3 -31 8
-34 11 -10 9 33 5 48 -5z m117 -36 c-9 -10 -27 15 -21 31 7 17 8 16 16 -5 5
-13 7 -24 5 -26z m-41 -11 c-11 -11 -19 6 -11 24 8 17 8 17 12 0 3 -10 2 -21
-1 -24z m-9 -109 c-3 -3 -12 -4 -19 -1 -8 3 -5 6 6 6 11 1 17 -2 13 -5z m1713
-18 c0 -3 -4 -8 -10 -11 -5 -3 -10 -1 -10 4 0 6 5 11 10 11 6 0 10 -2 10 -4z
m-1785 -65 c-6 -5 -25 10 -25 20 0 5 6 4 14 -3 8 -7 12 -15 11 -17z m125 -197
c0 -8 -5 -12 -10 -9 -6 4 -8 11 -5 16 9 14 15 11 15 -7z m44 -30 c9 -3 16 -13
16 -21 0 -8 -4 -11 -10 -8 -5 3 -15 3 -20 0 -15 -9 9 -48 26 -41 8 3 14 1 14
-4 0 -6 -7 -10 -15 -10 -8 0 -15 -4 -15 -9 0 -5 8 -8 17 -7 12 1 19 -9 24 -37
7 -41 29 -75 29 -44 0 9 5 17 10 17 6 0 10 -10 10 -22 0 -13 7 -32 15 -42 12
-16 15 -17 15 -4 0 8 7 21 15 28 12 10 15 10 15 -1 0 -11 2 -11 10 1 8 13 10
12 10 -3 0 -10 4 -16 9 -13 8 5 61 -118 75 -174 3 -14 12 -47 21 -73 8 -26 10
-45 5 -42 -6 4 -10 -3 -10 -14 0 -12 -6 -21 -14 -21 -8 0 -16 -6 -19 -12 -3
-10 -7 -10 -19 -1 -8 7 -18 9 -22 5 -4 -4 -5 7 -1 23 5 21 4 26 -3 16 -8 -11
-12 -10 -21 7 -10 18 -9 21 5 15 14 -5 15 -3 4 16 -7 14 -17 20 -27 17 -12 -5
-14 -1 -9 19 5 21 3 25 -9 23 -19 -3 -47 61 -46 104 1 15 -3 29 -8 33 -6 3 -8
12 -5 19 3 7 -11 27 -30 44 -20 17 -36 36 -36 42 0 5 -4 10 -9 10 -13 0 -25
41 -30 103 -1 5 -5 5 -11 2 -5 -3 -10 3 -10 15 0 13 4 19 12 14 8 -5 9 0 6 14
-6 23 5 28 36 16z m71 -134 c3 -5 1 -10 -4 -10 -6 0 -11 5 -11 10 0 6 2 10 4
10 3 0 8 -4 11 -10z m998 -243 c-11 -12 -25 -31 -31 -42 -11 -19 -11 -19 -12
3 0 13 12 33 28 47 33 28 43 24 15 -8z m-649 -53 c3 -8 2 -12 -4 -9 -6 3 -10
10 -10 16 0 14 7 11 14 -7z m580 -11 c-4 -16 -13 -35 -21 -43 -12 -12 -12 -8
1 24 9 21 16 40 16 42 0 2 2 4 5 4 3 0 2 -12 -1 -27z m-549 -13 c3 -5 1 -10
-4 -10 -6 0 -11 5 -11 10 0 6 2 10 4 10 3 0 8 -4 11 -10z m505 -20 c-8 -5 -22
-10 -30 -10 -13 0 -13 1 0 10 8 5 22 10 30 10 13 0 13 -1 0 -10z m-73 -57 c-3
-10 -5 -4 -5 12 0 17 2 24 5 18 2 -7 2 -21 0 -30z"/>
<path d="M2752 5248 c2 -6 12 -12 22 -14 14 -2 15 0 5 12 -14 17 -32 19 -27 2z"/>
<path d="M3220 4690 c6 -11 13 -20 16 -20 2 0 0 9 -6 20 -6 11 -13 20 -16 20
-2 0 0 -9 6 -20z"/>
<path d="M3220 4611 c0 -6 4 -13 10 -16 6 -3 7 1 4 9 -7 18 -14 21 -14 7z"/>
<path d="M3400 4522 c0 -7 -10 -17 -22 -22 -21 -8 -20 -9 10 -9 34 -1 38 4 22
29 -7 11 -10 11 -10 2z"/>
<path d="M3468 4433 c7 -3 16 -2 19 1 4 3 -2 6 -13 5 -11 0 -14 -3 -6 -6z"/>
<path d="M3460 5650 c0 -5 7 -7 15 -4 8 4 15 8 15 10 0 2 -7 4 -15 4 -8 0 -15
-4 -15 -10z"/>
<path d="M2355 5577 c2 -43 6 -81 9 -84 9 -9 6 76 -4 122 -7 32 -8 25 -5 -38z"/>
<path d="M1891 5595 c0 -16 6 -52 14 -79 8 -28 12 -58 9 -69 -4 -13 -2 -17 5
-13 15 10 13 38 -9 121 -12 48 -18 61 -19 40z"/>
<path d="M1831 5428 c0 -10 -9 -18 -18 -18 -15 0 -16 2 -3 10 8 5 10 10 5 10
-6 0 -19 -6 -30 -14 -11 -7 -22 -14 -25 -13 -21 1 -49 -17 -53 -34 -3 -12 -10
-18 -17 -14 -6 4 -48 -31 -100 -84 -49 -49 -85 -93 -80 -96 8 -5 86 70 102 99
4 7 24 26 45 41 31 24 28 18 -19 -32 -32 -34 -58 -67 -58 -73 0 -6 -4 -8 -10
-5 -5 3 -10 -1 -10 -9 0 -8 -12 -27 -27 -41 -15 -14 -23 -25 -18 -25 12 1 45
25 45 33 0 15 49 57 55 47 3 -5 2 -10 -2 -10 -5 0 -19 -18 -33 -39 -13 -22
-28 -37 -34 -34 -5 3 -6 1 -2 -6 15 -24 91 74 80 103 -3 9 -1 17 5 17 26 3 30
4 37 12 4 4 19 7 34 7 33 0 51 15 78 63 l21 37 -29 -15 c-17 -9 -30 -19 -30
-23 0 -4 -15 -15 -33 -25 -27 -15 -24 -11 18 29 28 26 53 47 58 46 4 -1 7 2 7
7 0 5 9 7 20 4 22 -6 35 15 27 44 -4 17 -5 17 -6 1z"/>
<path d="M1510 5245 c0 -8 5 -15 10 -15 6 0 10 7 10 15 0 8 -4 15 -10 15 -5 0
-10 -7 -10 -15z"/>
<path d="M1030 5190 c0 -5 4 -10 9 -10 6 0 13 5 16 10 3 6 -1 10 -9 10 -9 0
-16 -4 -16 -10z"/>
<path d="M3265 5180 c-3 -5 -1 -10 4 -10 6 0 11 5 11 10 0 6 -2 10 -4 10 -3 0
-8 -4 -11 -10z"/>
<path d="M1029 5148 c-1 -7 0 -48 1 -91 1 -49 -3 -84 -11 -93 -6 -8 -9 -17 -6
-20 3 -3 12 7 20 23 17 32 22 193 6 193 -5 0 -9 -6 -10 -12z"/>
<path d="M1077 5099 c7 -7 15 -10 18 -7 3 3 -2 9 -12 12 -14 6 -15 5 -6 -5z"/>
<path d="M2830 5070 c13 -24 35 -27 26 -4 -3 9 -6 18 -6 20 0 2 -7 4 -15 4
-13 0 -14 -4 -5 -20z"/>
<path d="M874 5056 c0 -14 4 -22 8 -20 4 3 8 14 8 25 0 10 -4 19 -8 19 -4 0
-8 -11 -8 -24z"/>
<path d="M2800 5070 c0 -5 5 -10 11 -10 5 0 7 5 4 10 -3 6 -8 10 -11 10 -2 0
-4 -4 -4 -10z"/>
<path d="M2795 5040 c10 -11 20 -20 23 -20 3 0 -3 9 -13 20 -10 11 -20 20 -23
20 -3 0 3 -9 13 -20z"/>
<path d="M2842 5010 c0 -19 2 -27 5 -17 2 9 2 25 0 35 -3 9 -5 1 -5 -18z"/>
<path d="M3315 5009 c-4 -6 -5 -12 -2 -15 2 -3 7 2 10 11 7 17 1 20 -8 4z"/>
<path d="M1125 4989 c-4 -6 -5 -12 -2 -15 2 -3 7 2 10 11 7 17 1 20 -8 4z"/>
<path d="M3225 4991 c-3 -5 -1 -12 5 -16 5 -3 10 1 10 9 0 18 -6 21 -15 7z"/>
<path d="M915 4970 c-3 -5 -3 -10 0 -10 4 0 0 -7 -9 -15 -8 -9 -13 -22 -9 -31
4 -12 8 -11 20 6 8 12 12 27 9 35 -2 7 0 16 7 19 9 3 9 5 0 5 -6 1 -15 -3 -18
-9z"/>
<path d="M1140 4976 c0 -2 7 -7 16 -10 8 -3 12 -2 9 4 -6 10 -25 14 -25 6z"/>
<path d="M3246 4945 c4 -8 8 -15 10 -15 2 0 4 7 4 15 0 8 -4 15 -10 15 -5 0
-7 -7 -4 -15z"/>
<path d="M693 4938 c-13 -6 -23 -15 -23 -20 0 -13 13 -9 40 12 27 21 18 25
-17 8z"/>
<path d="M1526 4898 l-17 -33 20 24 c18 20 27 41 18 41 -1 0 -11 -15 -21 -32z"/>
<path d="M986 4905 c-9 -26 -7 -32 5 -12 6 10 9 21 6 23 -2 3 -7 -2 -11 -11z"/>
<path d="M646 4879 c-11 -22 -10 -25 6 -26 10 -1 16 2 13 7 -3 4 6 17 20 27
l25 18 -25 0 c-18 0 -30 -8 -39 -26z"/>
<path d="M907 4891 c-10 -4 -18 -10 -18 -14 1 -4 0 -8 0 -9 -1 -2 -2 -43 -4
-93 -1 -49 0 -78 2 -63 2 14 12 32 21 40 15 11 15 11 5 -2 -15 -20 -25 -120
-12 -120 6 0 7 9 4 21 -5 15 -4 19 4 15 10 -7 16 26 12 62 -1 6 5 12 13 12 10
0 13 6 10 15 -4 8 -12 15 -20 15 -8 0 -14 8 -14 18 0 14 2 15 10 2 13 -21 19
-10 13 23 -4 19 -10 26 -20 23 -11 -5 -13 -1 -7 17 4 12 12 25 18 29 16 10 4
17 -17 9z"/>
<path d="M750 4866 c-86 -28 -104 -36 -98 -41 3 -3 24 2 48 10 23 8 52 15 64
15 21 -1 21 -1 2 -15 -20 -15 -20 -15 0 -16 10 -1 23 -1 27 0 4 1 16 3 27 4
28 4 36 15 16 23 -9 3 -14 9 -12 13 3 4 2 12 -2 17 -5 7 -30 3 -72 -10z"/>
<path d="M1565 4881 c-3 -6 -11 -8 -17 -5 -7 4 -8 2 -4 -5 4 -6 -3 -28 -15
-49 -25 -43 -15 -34 25 21 15 21 26 41 23 43 -3 3 -8 0 -12 -5z"/>
<path d="M1005 4869 c-4 -6 -5 -12 -2 -15 2 -3 7 2 10 11 7 17 1 20 -8 4z"/>
<path d="M2715 4840 c3 -5 8 -10 11 -10 2 0 4 5 4 10 0 6 -5 10 -11 10 -5 0
-7 -4 -4 -10z"/>
<path d="M1040 4814 c0 -14 -12 -42 -26 -62 l-27 -37 31 32 c17 17 32 30 34
28 2 -3 2 11 0 30 -5 41 -12 46 -12 9z"/>
<path d="M1586 4823 c-6 -14 -5 -15 5 -6 7 7 10 15 7 18 -3 3 -9 -2 -12 -12z"/>
<path d="M2740 4827 c0 -14 56 -103 71 -112 4 -3 -5 21 -21 54 -30 61 -50 84
-50 58z"/>
<path d="M1617 4798 c-10 -18 -42 -69 -72 -112 -30 -44 -55 -84 -55 -90 1 -15
36 31 55 70 8 17 22 37 30 44 20 16 75 98 75 111 0 19 -17 8 -33 -23z"/>
<path d="M629 4813 c-1 -2 -2 -7 -3 -13 0 -5 -5 -9 -11 -7 -5 1 -15 -20 -21
-48 -14 -67 -1 -81 51 -59 21 8 35 18 32 20 -3 3 -14 1 -25 -5 -25 -13 -52
-14 -52 -3 0 12 50 33 61 27 5 -4 9 1 9 11 0 13 -7 15 -37 10 l-38 -6 39 20
c22 11 50 20 64 20 17 0 22 4 19 14 -4 10 -1 13 9 9 7 -3 14 -1 14 4 0 8 -107
13 -111 6z"/>
<path d="M825 4800 c4 -6 11 -8 16 -5 14 9 11 15 -7 15 -8 0 -12 -5 -9 -10z"/>
<path d="M1668 4779 c-9 -10 -21 -26 -26 -36 -6 -10 -34 -49 -62 -88 -55 -74
-73 -104 -85 -145 -8 -24 -7 -24 16 5 14 17 46 62 72 100 26 39 61 89 78 113
32 45 38 81 7 51z"/>
<path d="M766 4771 c-3 -5 1 -12 10 -15 24 -9 31 -7 38 9 4 11 -1 15 -19 15
-13 0 -26 -4 -29 -9z"/>
<path d="M700 4750 c0 -5 5 -10 10 -10 6 0 10 5 10 10 0 6 -4 10 -10 10 -5 0
-10 -4 -10 -10z"/>
<path d="M776 4711 c-3 -5 1 -12 10 -15 25 -10 34 -7 28 9 -7 17 -30 20 -38 6z"/>
<path d="M977 4691 c-4 -17 -3 -21 5 -13 5 5 8 16 6 23 -3 8 -7 3 -11 -10z"/>
<path d="M1506 4693 c-6 -14 -5 -15 5 -6 7 7 10 15 7 18 -3 3 -9 -2 -12 -12z"/>
<path d="M939 4668 c-7 -18 -14 -36 -17 -40 -2 -5 1 -8 7 -8 10 0 34 70 27 77
-2 2 -10 -11 -17 -29z"/>
<path d="M575 4669 c-5 -8 -4 -10 3 -5 9 5 12 -9 13 -46 1 -30 4 -41 6 -25 3
18 16 35 36 48 l32 19 -30 0 c-17 0 -36 5 -42 11 -8 8 -13 7 -18 -2z"/>
<path d="M790 4661 c0 -5 5 -13 10 -16 6 -3 10 -2 10 4 0 5 -4 13 -10 16 -5 3
-10 2 -10 -4z"/>
<path d="M850 4645 c-7 -8 -16 -13 -20 -10 -5 3 -12 0 -16 -6 -3 -6 6 -23 21
-37 l28 -25 -5 36 c-2 20 1 38 7 40 5 3 7 7 4 11 -3 4 -12 0 -19 -9z"/>
<path d="M972 4595 c-6 -13 -7 -27 -3 -30 5 -2 12 7 15 21 9 35 2 40 -12 9z"/>
<path d="M2764 4575 c40 -70 63 -91 30 -28 -15 29 -34 58 -42 65 -9 7 -4 -9
12 -37z"/>
<path d="M1060 4529 c0 -11 4 -18 10 -14 5 3 7 12 3 20 -7 21 -13 19 -13 -6z"/>
<path d="M2835 4490 c3 -5 8 -10 11 -10 2 0 4 5 4 10 0 6 -5 10 -11 10 -5 0
-7 -4 -4 -10z"/>
<path d="M610 4480 c-9 -6 -10 -10 -3 -10 6 0 15 5 18 10 8 12 4 12 -15 0z"/>
<path d="M640 4480 c0 -5 5 -10 11 -10 5 0 7 5 4 10 -3 6 -8 10 -11 10 -2 0
-4 -4 -4 -10z"/>
<path d="M551 4391 c0 -49 -7 -76 -31 -123 -17 -33 -29 -65 -27 -72 3 -6 -2
-19 -11 -28 -19 -22 -30 -199 -14 -231 6 -12 16 -40 22 -62 6 -22 13 -45 15
-52 3 -8 13 -8 39 1 20 7 39 16 43 21 5 4 2 5 -4 1 -7 -4 -13 -2 -13 4 0 6
-11 8 -27 4 -22 -4 -25 -3 -13 5 8 6 25 11 38 11 24 0 24 6 -1 101 -8 31 -16
44 -26 41 -8 -3 -11 0 -7 7 4 6 1 11 -6 11 -10 0 -9 3 1 9 12 8 12 12 2 24 -8
11 -9 17 -1 22 8 5 8 11 0 20 -9 11 -8 19 3 35 7 11 16 17 19 15 3 -3 3 6 1
20 -3 14 -1 25 5 25 5 0 15 -30 21 -67 14 -83 54 -229 82 -300 21 -53 49 -87
56 -68 2 6 23 38 48 70 25 33 45 66 45 73 0 6 3 12 8 12 4 0 20 21 37 48 16
26 35 53 42 60 17 17 17 32 0 32 -7 0 -23 10 -37 23 -14 12 -40 29 -58 36 -18
8 -58 29 -88 47 -37 23 -54 29 -50 18 3 -9 6 -18 6 -20 0 -3 4 -2 10 1 5 3 25
-4 42 -17 18 -13 47 -31 63 -38 17 -8 32 -18 35 -21 3 -3 15 -11 28 -18 25
-13 30 -31 8 -31 -8 0 -49 20 -93 44 -43 25 -79 41 -81 35 -2 -5 -8 -9 -13 -9
-6 0 -5 8 1 20 6 11 7 20 3 19 -24 -4 -31 3 -27 25 3 21 1 24 -17 21 -15 -3
-19 0 -17 13 3 9 10 16 17 14 8 -1 10 2 5 10 -5 7 -7 23 -5 36 1 12 -2 22 -8
22 -6 0 -11 -6 -11 -12 0 -34 -31 51 -32 87 0 23 -6 52 -13 65 -12 22 -13 18
-14 -39z m9 -161 c0 -5 -6 -10 -14 -10 -7 0 -19 -7 -26 -15 -7 -9 -15 -13 -18
-10 -5 5 38 44 51 45 4 0 7 -4 7 -10z m-29 -65 c5 4 6 -2 2 -11 -4 -12 -8 -14
-11 -6 -3 10 -7 10 -18 1 -17 -14 -19 2 -2 19 8 8 14 9 16 2 2 -5 8 -8 13 -5z
m163 -72 c4 -5 11 -8 14 -8 4 -1 41 -18 82 -39 62 -32 71 -40 55 -46 -11 -4
-22 -4 -25 0 -6 9 -58 35 -89 45 -22 7 -23 5 -17 -21 7 -29 7 -29 -9 -6 -9 12
-14 26 -10 31 3 5 -2 16 -10 24 -8 9 -15 18 -15 21 0 8 15 7 24 -1z m-184 -73
c0 -5 -5 -10 -11 -10 -5 0 -7 5 -4 10 3 6 8 10 11 10 2 0 4 -4 4 -10z m25 -36
c-11 -9 -29 -20 -40 -26 -17 -9 -16 -6 4 16 14 14 32 26 40 26 13 -1 12 -4 -4
-16z m295 -35 c0 -12 -34 -3 -70 18 -16 10 -21 11 -12 2 6 -7 12 -20 12 -28
-1 -10 -6 -7 -15 9 -22 41 -2 54 46 30 21 -11 39 -25 39 -31z m-270 12 c0 -5
-12 -11 -27 -14 -26 -5 -26 -4 -8 9 22 16 35 18 35 5z m-5 -51 c-3 -5 -11 -10
-16 -10 -6 0 -7 5 -4 10 3 6 11 10 16 10 6 0 7 -4 4 -10z"/>
<path d="M620 4419 c0 -5 14 -9 32 -9 36 0 31 11 -7 15 -14 2 -25 -1 -25 -6z"/>
<path d="M861 4408 c0 -13 4 -32 9 -43 7 -15 8 -10 8 23 -1 23 -5 42 -10 42
-4 0 -8 -10 -7 -22z"/>
<path d="M740 4390 c0 -5 10 -10 23 -10 18 0 19 2 7 10 -19 13 -30 13 -30 0z"/>
<path d="M658 4383 c7 -3 16 -2 19 1 4 3 -2 6 -13 5 -11 0 -14 -3 -6 -6z"/>
<path d="M610 4371 c0 -5 8 -15 17 -22 11 -10 14 -10 9 -1 -5 8 -1 12 11 13
16 0 16 1 -2 9 -27 11 -35 12 -35 1z"/>
<path d="M677 4349 c7 -7 15 -10 18 -7 3 3 -2 9 -12 12 -14 6 -15 5 -6 -5z"/>
<path d="M870 4311 c0 -5 5 -13 10 -16 6 -3 10 -2 10 4 0 5 -4 13 -10 16 -5 3
-10 2 -10 -4z"/>
<path d="M645 4300 c27 -12 43 -12 25 0 -8 5 -22 9 -30 9 -10 0 -8 -3 5 -9z"/>
<path d="M810 4296 c0 -2 8 -10 18 -17 15 -13 16 -12 3 4 -13 16 -21 21 -21
13z"/>
<path d="M710 4276 c14 -8 27 -12 29 -10 6 6 -1 11 -29 18 l-25 7 25 -15z"/>
<path d="M881 4250 c0 -19 4 -44 8 -55 7 -17 8 -16 13 9 3 15 -1 40 -8 55
l-14 26 1 -35z"/>
<path d="M652 4244 c10 -9 128 -64 128 -59 0 3 -27 18 -60 35 -56 28 -80 37
-68 24z"/>
<path d="M800 4236 c0 -2 7 -7 16 -10 8 -3 12 -2 9 4 -6 10 -25 14 -25 6z"/>
<path d="M1436 4232 c-3 -6 -1 -12 5 -14 9 -3 9 -9 0 -26 -10 -18 -9 -21 4
-16 8 4 15 1 15 -5 0 -6 4 -11 9 -11 4 0 8 13 7 29 -1 16 -4 27 -8 25 -4 -3
-11 3 -16 12 -6 10 -12 13 -16 6z"/>
<path d="M846 4208 c3 -4 9 -8 15 -8 5 0 9 4 9 8 0 5 -7 9 -15 9 -8 0 -12 -4
-9 -9z"/>
<path d="M1587 4203 c-12 -12 -7 -22 8 -17 8 4 15 10 15 15 0 11 -14 12 -23 2z"/>
<path d="M2807 4175 c-4 -8 -1 -17 4 -21 6 -3 8 -18 5 -33 -5 -19 -4 -22 4
-11 7 11 10 11 10 2 0 -7 4 -11 9 -7 5 3 12 1 16 -5 3 -5 12 -10 18 -10 7 1 1
10 -12 20 -13 11 -20 20 -17 20 4 0 0 14 -9 30 -18 34 -21 36 -28 15z"/>
<path d="M790 4174 c0 -2 14 -10 30 -19 17 -9 30 -12 30 -7 0 4 -13 13 -30 19
-16 6 -30 10 -30 7z"/>
<path d="M902 4129 c1 -17 4 -25 8 -18 7 10 2 49 -5 49 -2 0 -3 -14 -3 -31z"/>
<path d="M924 4023 c-12 -39 -67 -150 -92 -188 -33 -48 -48 -63 -90 -93 -37
-27 -38 -32 -14 -63 15 -17 21 -19 27 -9 5 8 4 11 -3 6 -21 -13 -23 14 -2 31
12 10 31 26 42 36 12 9 25 17 29 17 5 0 6 7 3 15 -5 13 31 76 48 83 4 2 8 9 8
16 0 7 9 21 20 31 11 10 17 22 14 27 -3 5 -3 21 1 36 l7 27 18 -22 c27 -33 32
-28 13 12 -20 42 -11 56 20 28 29 -27 68 -37 60 -15 -4 8 -2 13 3 9 6 -3 16
-1 24 5 11 7 7 8 -16 4 -19 -3 -39 0 -50 9 -26 20 -63 19 -70 -2z"/>
<path d="M3161 3944 c-1 -6 -11 -10 -22 -10 -12 1 -24 -4 -26 -11 -3 -7 5 -10
22 -9 31 4 39 11 32 28 -3 7 -6 8 -6 2z"/>
<path d="M3180 3942 c0 -5 11 -14 24 -20 21 -9 23 -8 19 9 -5 18 -43 28 -43
11z"/>
<path d="M3170 3880 c-9 -6 -10 -10 -3 -10 6 0 15 5 18 10 8 12 4 12 -15 0z"/>
<path d="M3236 3867 c3 -10 9 -15 12 -12 3 3 0 11 -7 18 -10 9 -11 8 -5 -6z"/>
<path d="M481 3840 c-1 -9 8 -49 20 -90 19 -71 24 -130 15 -195 -6 -36 2 -49
20 -35 7 7 19 10 26 7 8 -3 2 -10 -14 -17 -16 -7 -28 -19 -28 -27 0 -11 5 -11
23 -3 l22 11 -23 -18 c-22 -18 -22 -19 -7 -78 13 -47 100 -230 122 -255 5 -6
-6 197 -13 232 -5 27 -44 46 -66 32 -7 -4 -8 -3 -4 4 4 7 15 12 26 12 14 0 17
5 13 23 -5 21 -5 21 9 4 7 -10 20 -16 28 -12 11 4 16 27 17 93 2 48 4 110 5
137 l3 50 -52 -3 c-34 -3 -53 0 -53 7 0 6 7 12 15 12 8 1 20 3 25 4 6 1 19 3
30 4 11 0 20 7 20 15 0 11 -10 13 -41 10 -23 -3 -49 -2 -58 2 -11 5 -2 10 29
13 47 6 57 22 19 31 -32 8 -89 0 -89 -12 0 -6 20 -54 45 -106 25 -52 43 -97
40 -100 -3 -3 -5 0 -5 6 0 6 -6 17 -13 24 -18 19 -75 135 -91 188 -8 25 -14
38 -15 30z m159 -170 c-8 -5 -24 -10 -35 -10 -17 0 -17 2 -5 10 8 5 24 10 35
10 17 0 17 -2 5 -10z m-90 -110 c0 -5 -5 -10 -11 -10 -5 0 -7 5 -4 10 3 6 8
10 11 10 2 0 4 -4 4 -10z m24 -117 c-30 -22 -38 -15 -13 12 14 14 26 19 28 13
2 -6 -4 -17 -15 -25z m56 -73 c0 -5 -5 -10 -11 -10 -5 0 -7 5 -4 10 3 6 8 10
11 10 2 0 4 -4 4 -10z m3 -57 c-7 -2 -21 -2 -30 0 -10 3 -4 5 12 5 17 0 24 -2
18 -5z"/>
<path d="M1931 3607 c-16 -18 -21 -37 -22 -83 -1 -32 -5 -72 -9 -89 -8 -30 -8
-30 -9 8 -1 51 -16 47 -32 -10 -15 -54 -19 -352 -6 -418 5 -22 5 -37 1 -33
-12 12 -27 105 -33 208 -3 39 -4 41 -11 20 -5 -17 -8 -19 -9 -7 -1 23 -28 22
-36 -3 -3 -11 -12 -20 -18 -20 -7 0 -6 -4 3 -10 13 -8 12 -10 -2 -10 -13 0
-18 -8 -19 -27 l-1 -28 -7 25 c-5 18 -13 24 -27 22 -25 -5 -43 -23 -28 -29 6
-2 9 -15 6 -28 -2 -15 0 -25 7 -25 6 0 11 -9 11 -21 0 -31 23 -17 27 17 2 16
8 31 14 32 5 2 9 15 9 29 0 19 4 24 20 21 12 -2 19 -6 18 -9 -2 -4 6 -17 17
-30 11 -12 14 -19 8 -15 -7 4 -13 3 -13 -2 0 -5 -13 -25 -30 -43 -16 -19 -30
-38 -30 -44 0 -5 -15 -17 -33 -26 -34 -17 -46 -12 -60 24 -4 10 -11 16 -16 12
-5 -3 -22 6 -36 20 -20 18 -32 22 -44 15 -12 -6 -31 -2 -62 11 -24 11 -71 22
-104 24 -40 3 -53 1 -40 -5 24 -10 23 -11 -40 -15 -27 -2 -76 -7 -108 -10 -41
-4 -57 -3 -52 4 3 6 14 11 23 11 11 0 13 3 6 10 -16 16 -104 -32 -150 -82 -41
-44 -76 -120 -89 -191 -13 -70 0 -72 62 -9 77 76 99 90 158 107 112 31 246 24
285 -15 17 -17 17 -18 -5 -30 -18 -10 -31 -10 -59 0 -24 7 -41 8 -49 2 -7 -5
-21 -12 -32 -14 -11 -3 -29 -9 -40 -13 -16 -5 -17 -5 -5 4 9 7 10 11 3 11 -6
0 -14 -4 -18 -9 -3 -5 -20 -13 -38 -16 -47 -10 -127 -46 -127 -57 0 -6 -8 -22
-19 -36 -10 -15 -21 -47 -24 -72 -4 -25 -11 -60 -16 -79 -6 -19 -8 -38 -5 -43
3 -5 0 -16 -7 -24 -8 -10 -9 -18 -3 -22 6 -4 13 -15 17 -24 15 -43 37 -6 37
63 0 20 7 42 15 49 8 7 15 19 15 26 0 20 52 66 104 92 47 24 123 30 202 17 62
-11 74 -15 74 -30 0 -7 10 -15 22 -17 24 -3 38 -28 15 -28 -8 0 -15 -10 -15
-22 0 -30 -30 -98 -42 -98 -6 0 -10 -11 -10 -25 0 -53 -53 -118 -77 -94 -6 6
-17 2 -31 -11 -22 -21 -62 -27 -62 -10 0 5 -7 7 -15 4 -33 -13 -194 42 -177
61 4 4 1 6 -7 3 -8 -2 -15 -15 -16 -28 -5 -66 67 -145 181 -200 38 -19 94 -53
125 -77 31 -23 78 -54 105 -68 26 -14 51 -29 54 -33 9 -12 163 -65 187 -65 26
1 86 50 121 98 32 44 47 139 32 208 -10 49 -60 147 -100 195 -8 9 -16 26 -17
37 -1 19 -1 19 11 3 7 -10 17 -14 21 -10 5 4 5 2 2 -4 -8 -14 14 -24 49 -24
14 0 27 -7 30 -15 4 -8 14 -15 24 -15 16 0 34 -31 31 -52 -1 -5 6 -8 14 -8 8
0 15 -5 15 -12 0 -6 11 -26 25 -44 14 -18 25 -41 25 -51 0 -10 7 -29 16 -41 8
-12 14 -28 11 -35 -7 -21 20 -38 48 -31 31 8 69 62 84 120 11 42 74 124 95
124 7 0 25 11 40 25 15 14 29 25 32 25 10 0 2 -24 -18 -53 -13 -18 -22 -33
-20 -35 2 -1 -9 -27 -23 -57 -44 -89 -35 -254 15 -270 10 -3 21 -14 24 -23 10
-29 186 -66 201 -42 8 12 57 9 68 -5 5 -6 7 -3 3 8 -4 12 0 17 12 17 10 0 26
9 36 21 12 14 25 20 42 16 17 -3 24 0 24 12 0 14 2 14 10 1 6 -10 10 -11 10
-2 0 16 27 16 33 0 4 -10 6 -10 6 0 1 6 5 12 11 12 5 0 9 -6 7 -12 -1 -7 6
-12 16 -10 9 2 17 -2 17 -8 0 -5 -7 -10 -15 -10 -16 0 -20 -12 -8 -23 10 -11
12 -56 2 -62 -16 -11 -10 -25 11 -25 27 0 25 -14 -2 -27 -23 -11 -23 -11 6
-18 23 -6 32 -4 43 10 18 25 16 42 -7 74 l-19 28 29 1 c16 0 32 -4 35 -9 4 -5
-1 -9 -9 -9 -9 0 -16 -7 -16 -15 0 -8 5 -15 10 -15 6 0 10 -7 10 -15 0 -18 20
-20 21 -2 0 6 5 2 11 -11 15 -30 33 -23 34 14 1 34 -32 74 -61 74 -17 0 -17 2
-5 10 22 14 40 12 40 -5 0 -17 25 -20 35 -5 3 6 -1 13 -10 16 -9 4 -14 13 -10
22 6 16 -11 42 -27 42 -6 0 -7 -7 -4 -16 4 -10 1 -14 -6 -12 -7 3 -14 12 -16
21 -3 13 4 17 32 17 19 0 38 5 42 11 3 6 14 9 23 6 11 -2 28 9 45 29 15 19 35
34 44 34 27 0 102 32 96 41 -3 5 2 9 10 9 8 0 20 8 26 18 11 16 11 16 6 0 -3
-10 -1 -18 4 -18 11 0 14 20 11 62 -1 14 3 29 8 33 16 9 13 25 -3 25 -7 0 -16
9 -19 20 -3 11 -1 20 4 20 6 0 5 9 -1 20 -6 12 -8 30 -5 40 4 14 2 20 -9 20
-18 0 -56 77 -56 113 0 25 23 42 41 31 5 -3 9 -12 9 -21 0 -9 3 -13 7 -10 3 4
12 2 20 -5 7 -6 16 -8 19 -5 20 20 34 254 15 242 -6 -3 -11 -1 -11 5 0 27 -57
124 -91 155 -40 36 -121 66 -173 64 -31 -1 -31 -1 5 -8 19 -4 46 -15 60 -25
24 -18 23 -18 -41 -11 -70 7 -95 20 -70 35 21 14 -61 13 -97 -1 -16 -6 -29 -6
-31 -1 -4 12 -56 6 -85 -10 -12 -6 -31 -12 -42 -12 -11 -1 -19 -7 -18 -13 2
-7 0 -13 -5 -14 -4 0 -16 -2 -28 -3 -11 -1 -29 1 -40 5 -17 7 -17 8 -1 8 9 1
17 9 17 18 0 13 -3 14 -12 5 -7 -7 -21 -12 -32 -12 -16 0 -18 2 -7 9 8 5 9 10
3 12 -13 5 5 89 19 89 5 0 6 7 3 15 -4 8 1 17 10 21 14 5 14 8 -1 22 -16 16
-14 17 18 23 29 6 30 7 7 8 -28 1 -50 21 -24 21 20 0 20 5 1 33 -8 12 -15 52
-17 90 -2 37 -6 67 -10 67 -5 0 -8 13 -8 29 0 16 -6 31 -14 34 -17 7 -46 -27
-46 -54 0 -18 -2 -19 -15 -9 -8 7 -16 24 -16 39 -2 23 -2 24 -6 4 -2 -13 -9
-23 -14 -23 -6 0 -7 5 -4 10 3 6 2 10 -3 10 -6 0 -10 -16 -10 -35 0 -19 5 -33
10 -32 6 1 13 -4 15 -10 3 -7 0 -13 -6 -13 -6 0 -11 -7 -11 -15 0 -8 -4 -15
-8 -15 -5 0 -9 -13 -9 -29 0 -22 4 -28 16 -23 14 5 14 3 2 -11 -7 -9 -9 -17
-3 -17 5 0 8 -9 5 -20 -3 -10 -10 -18 -16 -17 -7 1 -14 -19 -17 -50 -3 -28 -9
-55 -14 -60 -5 -4 -6 14 -2 42 10 80 20 315 13 315 -4 0 -11 -15 -16 -32 -7
-26 -9 -10 -10 74 -1 82 -5 110 -16 122 -23 22 -58 0 -48 -29 4 -11 7 -36 7
-55 -3 -80 -11 -161 -17 -167 -6 -5 -10 59 -12 183 0 21 -5 31 -17 31 -12 1
-20 -12 -29 -48 -7 -27 -16 -49 -21 -49 -4 0 -8 -8 -9 -17 0 -13 -3 -11 -10 6
-6 16 -6 41 -1 68 8 36 7 47 -8 65 -23 29 -46 12 -48 -34 -1 -18 -6 -60 -11
-93 -5 -38 -5 -62 1 -66 12 -7 3 -138 -12 -189 -1 -3 -5 4 -9 15 -11 28 -3
277 9 289 12 12 13 36 2 36 -5 0 -13 -12 -20 -27 -11 -28 -11 -27 -9 10 2 29
-1 37 -14 37 -28 0 -42 -28 -46 -88 -2 -31 -9 -62 -16 -69 -9 -10 -12 9 -11
93 0 57 -2 107 -6 109 -4 2 -17 -6 -29 -18z m338 -269 c0 -7 -4 -22 -9 -33 -7
-17 -9 -15 -9 13 -1 17 4 32 9 32 6 0 10 -6 9 -12z m-188 -165 c-8 -15 -10
-15 -11 -2 0 17 10 32 18 25 2 -3 -1 -13 -7 -23z m171 -40 c-10 -28 -10 -28
-11 12 -1 28 2 36 10 28 8 -8 8 -19 1 -40z m85 -95 c-3 -8 -6 -5 -6 6 -1 11 2
17 5 13 3 -3 4 -12 1 -19z m-617 -72 c0 -3 -4 -8 -10 -11 -5 -3 -10 -1 -10 4
0 6 5 11 10 11 6 0 10 -2 10 -4z m790 -6 c0 -5 -5 -10 -11 -10 -5 0 -7 5 -4
10 3 6 8 10 11 10 2 0 4 -4 4 -10z m-209 -23 c-10 -9 -11 -8 -5 6 3 10 9 15
12 12 3 -3 0 -11 -7 -18z m-18 -52 c-3 -9 -8 -14 -10 -11 -3 3 -2 9 2 15 9 16
15 13 8 -4z m-793 -35 c0 -20 -5 -25 -20 -22 -20 5 -23 9 -15 21 8 14 35 14
35 1z m36 -27 c-10 -10 -19 5 -10 18 6 11 8 11 12 0 2 -7 1 -15 -2 -18z m109
-33 c3 -6 -3 -10 -15 -10 -12 0 -18 4 -15 10 3 6 -1 7 -9 4 -16 -6 -22 7 -10
19 8 7 40 -8 49 -23z m40 -20 c3 -6 -1 -7 -9 -4 -18 7 -21 14 -7 14 6 0 13 -4
16 -10z m1385 -15 c0 -8 9 -20 20 -28 11 -8 17 -17 12 -21 -4 -4 2 -14 12 -22
16 -11 16 -14 4 -14 -26 0 -59 36 -52 56 6 17 5 17 -9 -1 -9 -11 -17 -15 -17
-8 0 6 5 15 11 19 6 3 9 15 6 25 -3 11 -1 17 4 13 5 -3 9 -11 9 -19z m-166
-90 c15 -8 35 -15 44 -15 25 0 97 -82 110 -127 6 -22 12 -66 12 -96 0 -64 10
-58 -117 -77 -40 -7 -77 -9 -82 -6 -6 4 -6 18 -1 36 5 17 5 28 0 25 -5 -3 -17
6 -28 20 -11 14 -25 25 -32 25 -6 0 -9 4 -5 10 3 5 -10 25 -30 45 -19 20 -42
52 -51 71 -9 19 -20 34 -24 34 -5 0 -6 9 -3 20 3 13 14 20 29 20 34 0 37 1 59
16 26 18 83 18 119 -1z m229 -21 c9 -9 -4 -35 -14 -28 -5 3 -9 12 -9 20 0 14
12 19 23 8z m-1927 -290 c18 -14 18 -14 -6 -3 -31 14 -36 19 -24 19 6 0 19 -7
30 -16z m59 -14 c-3 -5 -12 -7 -20 -3 -21 7 -19 13 6 13 11 0 18 -4 14 -10z
m-55 -82 c0 -11 -56 21 -72 40 -6 7 8 3 31 -10 22 -12 41 -26 41 -30z m35 -18
c3 -5 2 -10 -4 -10 -5 0 -13 5 -16 10 -3 6 -2 10 4 10 5 0 13 -4 16 -10z
m1715 1 c0 -9 -41 -23 -49 -16 -3 4 28 20 47 24 1 1 2 -3 2 -8z m-13 -117 c-3
-3 -12 -4 -19 -1 -8 3 -5 6 6 6 11 1 17 -2 13 -5z"/>
<path d="M2836 2443 c5 -5 12 -12 16 -18 4 -6 8 -2 8 8 0 9 -7 17 -17 17 -9 0
-12 -3 -7 -7z"/>
<path d="M1841 3546 c-6 -16 -10 -34 -7 -40 2 -6 5 -3 5 6 1 9 6 18 12 20 6 2
9 13 7 23 -4 17 -6 16 -17 -9z"/>
<path d="M1775 3375 c0 -25 -4 -35 -15 -35 -11 0 -11 -3 -3 -8 8 -5 9 -13 3
-22 -16 -25 -11 -39 11 -33 19 5 21 3 17 -20 -5 -27 5 -36 18 -16 11 18 12
143 1 157 -18 23 -34 13 -32 -23z"/>
<path d="M3511 3104 c0 -11 3 -14 6 -6 3 7 2 16 -1 19 -3 4 -6 -2 -5 -13z"/>
<path d="M655 3005 c-5 -16 -9 -51 -9 -77 0 -26 -3 -45 -7 -42 -4 2 -7 -5 -6
-16 1 -16 7 -20 27 -18 24 3 25 6 22 57 -2 29 -7 70 -11 90 l-8 36 -8 -30z"/>
<path d="M1676 2994 c-6 -15 -4 -15 11 -3 10 7 20 15 22 16 2 2 -3 3 -11 3 -9
0 -19 -7 -22 -16z"/>
<path d="M683 2549 c-15 -19 -35 -97 -28 -109 12 -19 23 -10 30 23 4 17 14 41
21 52 16 22 18 39 5 31 -5 -4 -11 -1 -13 5 -3 8 -7 7 -15 -2z"/>
<path d="M3150 2540 c-6 -11 -8 -20 -6 -20 3 0 10 9 16 20 6 11 8 20 6 20 -3
0 -10 -9 -16 -20z"/>
<path d="M3331 2454 c0 -11 3 -14 6 -6 3 7 2 16 -1 19 -3 4 -6 -2 -5 -13z"/>
<path d="M739 2188 c-20 -52 -28 -63 -49 -66 -18 -2 -31 6 -45 27 -19 28 -21
28 -40 13 -57 -47 -73 -126 -35 -175 11 -14 20 -28 20 -30 0 -3 -14 -29 -32
-57 -18 -29 -40 -82 -49 -118 -10 -42 -23 -70 -35 -77 -11 -5 -21 -11 -23 -12
-9 -6 23 -33 39 -33 11 0 20 -10 25 -27 3 -16 23 -62 44 -103 22 -44 41 -98
45 -129 8 -61 54 -131 87 -131 22 0 26 30 7 60 -10 16 -9 25 5 49 9 16 17 39
17 50 0 12 5 21 10 21 6 0 10 -4 10 -10 0 -11 89 -80 104 -80 6 0 22 9 35 19
28 22 25 30 -56 137 -52 69 -53 73 -52 135 0 35 4 84 7 109 4 25 5 74 2 109
-5 57 -3 68 16 90 20 23 24 24 40 11 13 -11 16 -12 10 -1 -13 21 -46 153 -46
186 -1 17 -9 45 -18 63 l-18 33 -25 -63z"/>
<path d="M2721 2004 c0 -11 3 -14 6 -6 3 7 2 16 -1 19 -3 4 -6 -2 -5 -13z"/>
<path d="M2458 1963 c7 -3 16 -2 19 1 4 3 -2 6 -13 5 -11 0 -14 -3 -6 -6z"/>
<path d="M2690 1950 c0 -5 5 -10 10 -10 6 0 10 5 10 10 0 6 -4 10 -10 10 -5 0
-10 -4 -10 -10z"/>
<path d="M2448 1873 c7 -3 16 -2 19 1 4 3 -2 6 -13 5 -11 0 -14 -3 -6 -6z"/>
<path d="M2850 1809 c0 -5 5 -7 10 -4 6 3 10 8 10 11 0 2 -4 4 -10 4 -5 0 -10
-5 -10 -11z"/>
<path d="M2977 1779 c4 -13 8 -18 11 -10 2 7 -1 18 -6 23 -8 8 -9 4 -5 -13z"/>
<path d="M1960 1421 c0 -5 -6 -16 -13 -23 -7 -7 -28 -43 -47 -80 -39 -78 -53
-83 -112 -42 -21 15 -41 25 -43 22 -3 -3 10 -16 30 -29 24 -17 33 -29 29 -42
-4 -13 0 -16 18 -15 16 2 23 -2 22 -14 -1 -9 4 -14 11 -12 7 3 15 -6 19 -20 4
-16 13 -26 25 -26 29 0 47 -28 33 -50 -6 -10 -8 -21 -4 -25 4 -4 8 -25 8 -48
3 -102 4 -107 18 -107 8 0 14 10 15 23 3 90 14 172 23 178 6 4 17 1 24 -6 8
-8 27 -11 46 -9 25 4 29 2 18 -5 -8 -6 -11 -11 -7 -11 4 0 25 11 45 25 20 14
32 25 27 25 -5 0 -4 5 3 12 7 7 12 19 12 28 0 17 34 50 52 50 7 0 25 12 42 28
17 15 24 19 17 10 -8 -10 -9 -18 -3 -18 19 0 38 75 21 86 -5 3 -24 -4 -43 -15
-49 -31 -57 -28 -50 19 4 25 3 40 -4 40 -16 0 -22 -26 -12 -59 8 -30 7 -31
-33 -41 -23 -6 -48 -13 -54 -15 -7 -2 -13 0 -13 4 0 5 6 11 13 14 7 2 1 10
-15 17 -18 8 -38 35 -59 76 -17 35 -38 64 -45 64 -8 0 -14 -4 -14 -9z"/>
<path d="M2302 1070 c1 -13 9 -25 16 -28 17 -5 15 23 -4 39 -14 11 -15 10 -12
-11z"/>
<path d="M2031 984 c0 -11 3 -14 6 -6 3 7 2 16 -1 19 -3 4 -6 -2 -5 -13z"/>
<path d="M1940 892 c0 -16 13 -20 35 -11 11 4 15 8 8 8 -6 1 -18 4 -27 7 -9 3
-16 1 -16 -4z"/>
</g>
</svg>
